<svg width="18" height="21" viewBox="0 0 18 21" fill="none" xmlns="http://www.w3.org/2000/svg">
<path fill-rule="evenodd" clip-rule="evenodd" d="M12.5527 13.5296L15.931 13.5217C17.3793 13.5217 18.2069 12.5156 17.431 11.7692L10.5517 4.20734C9.87931 3.55825 8.32759 3.55825 7.60345 4.20734L0.517241 11.8016C-0.310345 12.5481 0.568966 13.5542 2.01724 13.5542L5 13.5472V17.0493C5 18.7062 6.34315 20.0493 8 20.0493H9.55266C11.2095 20.0493 12.5527 18.7062 12.5527 17.0493V13.5296ZM1.5 0H16.5C17.3276 0 18 0.421908 18 0.941176V1.72008C18 2.23935 17.3276 2.66125 16.5 2.66125L1.5 2.66125C0.672413 2.66125 0 2.23935 0 1.72008V0.941177C0 0.421908 0.672413 0 1.5 0Z" fill="white"/>
</svg>
