<svg width="24" height="22" viewBox="0 0 24 22" fill="none" xmlns="http://www.w3.org/2000/svg">
<path d="M16.7802 2.04148C18.088 2.04494 19.3412 2.50641 20.2659 3.32511C21.1907 4.14381 21.712 5.25321 21.7159 6.41102V15.1492C21.712 16.307 21.1907 17.4164 20.2659 18.2351C19.3412 19.0538 18.088 19.5152 16.7802 19.5187H6.90973C5.60189 19.5152 4.34873 19.0538 3.42394 18.2351C2.49916 17.4164 1.97789 16.307 1.97398 15.1492V6.41102C1.97789 5.25321 2.49916 4.14381 3.42394 3.32511C4.34873 2.50641 5.60189 2.04494 6.90973 2.04148H16.7802ZM16.7802 0.293945H6.90973C3.1093 0.293945 0 3.04656 0 6.41102V15.1492C0 18.5136 3.1093 21.2662 6.90973 21.2662H16.7802C20.5806 21.2662 23.6899 18.5136 23.6899 15.1492V6.41102C23.6899 3.04656 20.5806 0.293945 16.7802 0.293945Z" fill="black"/>
<path d="M18.2612 6.41109C17.9683 6.41109 17.6821 6.33421 17.4386 6.19018C17.1951 6.04615 17.0053 5.84144 16.8932 5.60193C16.7812 5.36242 16.7519 5.09887 16.809 4.8446C16.8661 4.59034 17.0071 4.35678 17.2142 4.17347C17.4213 3.99015 17.6851 3.86531 17.9723 3.81474C18.2595 3.76416 18.5572 3.79012 18.8278 3.88933C19.0983 3.98854 19.3296 4.15654 19.4922 4.3721C19.6549 4.58765 19.7418 4.84107 19.7418 5.10032C19.7422 5.27256 19.7042 5.44317 19.6299 5.60237C19.5557 5.76156 19.4466 5.90621 19.309 6.028C19.1715 6.14979 19.0081 6.24632 18.8283 6.31207C18.6484 6.37781 18.4557 6.41146 18.2612 6.41109ZM11.8453 7.28462C12.6263 7.28462 13.3897 7.48963 14.039 7.87373C14.6883 8.25782 15.1944 8.80375 15.4933 9.44247C15.7921 10.0812 15.8703 10.784 15.7179 11.4621C15.5656 12.1402 15.1895 12.763 14.6373 13.2519C14.0851 13.7407 13.3816 14.0737 12.6156 14.2085C11.8497 14.3434 11.0558 14.2742 10.3343 14.0096C9.61281 13.745 8.99614 13.297 8.56228 12.7222C8.12841 12.1473 7.89683 11.4715 7.89683 10.7802C7.89795 9.85339 8.31431 8.96486 9.05456 8.30954C9.7948 7.65421 10.7985 7.28561 11.8453 7.28462ZM11.8453 5.53709C10.674 5.53709 9.52892 5.84459 8.55498 6.4207C7.58103 6.99682 6.82193 7.81568 6.37368 8.77372C5.92542 9.73177 5.80813 10.786 6.03665 11.803C6.26517 12.8201 6.82923 13.7543 7.65751 14.4876C8.48578 15.2208 9.54106 15.7202 10.6899 15.9225C11.8388 16.1248 13.0296 16.021 14.1118 15.6241C15.1939 15.2273 16.1189 14.5553 16.7697 13.6931C17.4204 12.8308 17.7678 11.8171 17.7678 10.7802C17.7678 9.38961 17.1438 8.05601 16.0331 7.07275C14.9225 6.08948 13.4161 5.53709 11.8453 5.53709Z" fill="black"/>
</svg>
