<svg width="26" height="20" viewBox="0 0 26 20" fill="none" xmlns="http://www.w3.org/2000/svg">
<path d="M25.674 2.65822C24.7219 3.03855 23.7145 3.28912 22.6837 3.40201C23.767 2.81883 24.5817 1.89234 24.9749 0.796315C23.9507 1.34691 22.832 1.73323 21.6668 1.93874C21.1762 1.46598 20.586 1.0899 19.9324 0.833332C19.2787 0.576769 18.5751 0.44509 17.8643 0.446297C14.9866 0.446297 12.6578 2.55613 12.6578 5.15696C12.6558 5.51872 12.7008 5.87941 12.7921 6.23132C10.7286 6.14239 8.708 5.65845 6.85958 4.81047C5.01116 3.96249 3.37564 2.76913 2.05763 1.30676C1.59524 2.02338 1.3507 2.84103 1.34958 3.67424C1.34958 5.30766 2.27655 6.75149 3.67626 7.59736C2.84697 7.57927 2.03467 7.37748 1.30833 7.00914V7.06747C1.30833 9.35232 3.10622 11.2531 5.48579 11.6858C5.03832 11.7954 4.5772 11.851 4.1141 11.8511C3.7855 11.8516 3.45764 11.8223 3.13531 11.7636C3.79683 13.6352 5.72216 14.9964 8.00284 15.0353C6.14962 16.3483 3.87436 17.0579 1.53465 17.0527C1.11935 17.0522 0.704432 17.0294 0.291992 16.9847C2.67218 18.3819 5.43896 19.121 8.263 19.1139C17.8532 19.1139 23.0924 11.9337 23.0924 5.70629C23.0924 5.50212 23.0866 5.29794 23.0761 5.09862C24.093 4.43362 24.9727 3.60721 25.674 2.65822Z" fill="black"/>
</svg>
