<svg width="52" height="52" viewBox="0 0 52 52" fill="none" xmlns="http://www.w3.org/2000/svg">
<circle cx="26" cy="26" r="26" fill="#D1CEC7" fill-opacity="0.3"/>
<path fill-rule="evenodd" clip-rule="evenodd" d="M29.5527 32.5296L32.931 32.5217C34.3793 32.5217 35.2069 31.5156 34.431 30.7692L27.5517 23.2073C26.8793 22.5583 25.3276 22.5583 24.6034 23.2073L17.5172 30.8016C16.6897 31.5481 17.569 32.5542 19.0172 32.5542L22 32.5472V36.0493C22 37.7062 23.3431 39.0493 25 39.0493H26.5527C28.2095 39.0493 29.5527 37.7062 29.5527 36.0493V32.5296ZM18.5 19H33.5C34.3276 19 35 19.4219 35 19.9412V20.7201C35 21.2393 34.3276 21.6613 33.5 21.6613L18.5 21.6613C17.6724 21.6613 17 21.2393 17 20.7201V19.9412C17 19.4219 17.6724 19 18.5 19Z" fill="white"/>
</svg>
