<svg width="107" height="146" viewBox="0 0 107 146" fill="none" xmlns="http://www.w3.org/2000/svg">
<mask id="mask0_196_164" style="mask-type:luminance" maskUnits="userSpaceOnUse" x="0" y="0" width="107" height="146">
<path d="M53.1558 0.722412H53.1577C82.3301 0.722412 105.805 20.1496 105.805 43.9197V102.303C105.805 126.073 82.3301 145.5 53.1577 145.5H53.1558C23.9834 145.5 0.508301 126.073 0.508301 102.303V43.9197C0.508301 20.1496 23.9834 0.722412 53.1558 0.722412Z" fill="white" stroke="white"/>
</mask>
<g mask="url(#mask0_196_164)">
<path d="M57.3213 146.828C57.0912 146.828 56.8592 146.823 56.6215 146.814H56.5991C52.7838 146.816 45.3592 142.344 43.4207 139.411C41.8733 137.075 43.2467 133.367 47.191 129.241C47.2415 129.187 47.2696 129.147 47.2341 129.032C46.9478 128.099 44.1935 125.719 28.9625 120.275L27.8529 119.886C23.452 118.357 16.8002 116.047 14.5361 109.991C11.9053 102.954 15.8384 92.9204 26.5619 79.3115C26.777 79.0377 27.2617 78.8484 27.6452 78.8946C28.4348 78.9915 28.6556 79.4115 29.4191 81.553C31.9077 76.8593 34.6638 73.844 34.7387 73.7655C34.9688 73.5209 35.3449 73.404 35.721 73.4547C36.0934 73.5117 36.3965 73.7347 36.505 74.0332C45.2226 97.9479 67.2963 99.7555 67.519 99.7725C68.0317 99.8079 68.4302 100.154 68.4433 100.577C68.8175 112.964 60.4162 122.347 60.0588 122.741C59.7295 123.103 59.1082 123.181 58.6648 122.918C40.5878 112.271 32.774 96.0141 29.217 86.7867C26.545 94.1157 25.9837 103.743 34.7705 112.552C35.5507 113.337 36.4451 114.184 37.4088 115.1C43.1326 120.541 51.7809 128.761 53.9608 139.856C54.0487 140.308 53.6764 140.734 53.1262 140.807C52.5761 140.89 52.0578 140.571 51.9699 140.122C51.2963 136.691 49.9977 133.568 48.3493 130.722C44.7735 134.631 44.3563 137.353 45.1945 138.618C46.7663 140.993 53.6389 145.157 56.6533 145.157H56.6664C64.7965 145.48 68.6023 139.368 68.6398 139.307C68.9635 138.778 67.5208 137.784 66.5666 137.128C66.0782 136.791 65.616 136.471 65.2717 136.176C65.0846 136.016 64.5888 135.588 64.6748 135.002C64.7684 134.37 65.3765 134.053 66.299 133.573C67.4591 132.968 69.3994 131.956 72.0377 129.672C80.1472 121.895 83.5358 115.51 82.3626 110.18C80.8395 103.265 71.5793 99.0725 63.4118 95.3757C60.2646 93.9496 57.2933 92.6034 54.8421 91.1619C46.0216 85.9682 37.4649 73.5547 38.1947 57.509C35.3618 58.6198 31.1068 58.5059 27.4338 57.066C23.8263 55.6506 15.6981 50.8431 18.168 36.8081C18.2073 36.5835 18.357 36.3819 18.5796 36.2512C18.8042 36.1204 19.0867 36.0696 19.3543 36.1112C19.5545 36.1435 38.1086 39.2265 40.0733 53.8722C51.9306 42.1925 53.6202 29.1206 53.2778 21.1593C52.1308 25.0899 49.9285 27.5945 46.6896 28.6314C35.6162 31.2744 27.5629 23.8269 23.8525 19.347C25.7629 26.7084 34.385 30.7975 34.4842 30.8421C34.9033 31.0359 35.0961 31.4467 34.9464 31.8221C34.7967 32.199 34.3345 32.442 33.8686 32.3867C18.937 30.9144 6.87011 23.2423 6.3649 22.9177C5.92706 22.6362 5.84847 22.1146 6.19276 21.7546C6.5333 21.3931 7.16949 21.33 7.6092 21.6116C7.71586 21.6793 17.4682 27.8714 29.885 30.1436C26.225 27.5776 21.158 22.7469 21.4799 15.8333C21.4967 15.4548 21.8279 15.1318 22.2807 15.0548C22.7354 14.9795 23.1919 15.1641 23.394 15.5056C23.482 15.6533 32.3399 30.3406 46.0422 27.0622C50.095 25.7638 52.1944 21.2008 52.1944 13.5256C52.1944 13.1072 52.5743 12.7549 53.0795 12.7026C53.5809 12.6503 54.0562 12.9164 54.1816 13.3226C54.2527 13.558 61.1478 37.0573 40.2417 56.2491C40.2454 56.646 40.2379 57.0491 40.2173 57.4613C39.366 75.1547 49.747 86.1236 56.0171 89.8158C58.3692 91.1989 61.2919 92.5219 64.3848 93.9234C72.9471 97.8002 82.6526 102.194 84.3479 109.886C85.6371 115.737 82.1007 122.572 73.5365 130.781C70.6943 133.248 68.6192 134.328 67.3805 134.975C67.2364 135.048 67.0849 135.128 66.9501 135.201C67.2476 135.436 67.5489 135.641 67.8595 135.855C69.3882 136.905 71.4801 138.345 70.4435 140.048C68.9859 142.442 64.4129 146.828 57.3213 146.828ZM27.2822 81.4622C17.7713 93.8342 14.132 103.265 16.4652 109.503C18.4524 114.82 24.339 116.864 28.6388 118.357L29.7671 118.752C36.6397 121.209 41.0837 123.076 43.9633 124.529C41.2932 121.33 38.3911 118.569 35.8819 116.186C34.9052 115.26 34.0015 114.4 33.21 113.606C22.9225 103.289 24.687 91.9788 28.2028 84.0529C28.0363 83.5883 27.8829 83.1545 27.7425 82.756C27.5816 82.2991 27.4244 81.8545 27.2822 81.4653V81.4622ZM30.3247 84.1006C33.3409 92.4265 40.5448 109.812 59.0072 121.069C60.8334 118.784 66.4562 110.963 66.4375 101.314C62.1189 100.697 43.6134 96.8726 35.2008 76.1408C33.9753 77.7054 31.9806 80.5176 30.3247 84.1006ZM20.0185 37.9419C18.2241 50.1877 25.1716 54.3384 28.302 55.566C32.1472 57.0752 36.3291 56.7844 38.204 55.5676C37.6183 42.7095 23.9797 38.8065 20.0185 37.9419Z" fill="#D1CEC7"/>
<path d="M84.6376 91.294C81.4174 91.294 77.8791 90.6863 74.2828 89.4663C68.7349 87.5864 65.3369 85.2541 63.8999 82.3419C61.952 78.3959 64.087 74.3483 65.8009 71.0961C67.5822 67.7208 66.7159 64.4609 64.609 61.7348C61.7481 61.6425 58.3688 61.8102 54.2205 62.5486C50.5905 63.1978 46.5545 62.2394 44.6198 60.2748C43.2744 58.9056 43.0574 57.1995 44.0079 55.4657C45.6901 52.3966 50.5307 51.7735 56.3349 53.8858C60.0865 55.2503 63.52 57.4503 65.8309 60.1348C68.2596 60.2687 70.2973 60.5671 72.058 60.8256C76.4121 61.4594 78.8109 61.8102 81.8552 59.3887C81.9881 59.2841 82.1246 59.1579 82.2612 59.0179C82.3903 57.5811 82.9479 56.5042 83.659 55.8257C83.7114 54.8457 83.4793 53.7196 82.7721 52.4904C77.9633 44.3091 58.3931 41.5246 58.1967 41.4969C57.6784 41.4261 57.3135 41.04 57.3584 40.6092C57.4014 40.18 57.8393 39.8492 58.3632 39.8492H58.4343C82.1172 39.8492 94.2888 28.0126 97.64 21.419L96.596 20.0036C94.3132 23.2666 90.773 25.4589 85.0717 28.3188C84.6338 28.5403 84.0706 28.4526 83.7544 28.1249C83.44 27.7942 83.4719 27.3219 83.8349 27.025C87.8054 23.7605 89.6541 18.0083 90.5148 13.313C87.433 19.6944 81.9095 26.5773 72.6399 25.7881C68.2783 25.4158 64.697 22.7389 62.1878 19.3006C65.0544 27.868 71.8784 32.4725 71.9626 32.5294C72.2264 32.7048 72.3648 32.9756 72.3349 33.2525C72.3031 33.5294 72.1048 33.7756 71.8072 33.9063C71.4854 34.0494 63.7689 37.3539 43.1977 37.3539C42.9039 37.3539 42.6083 37.3539 42.3071 37.3524C20.9668 37.2539 4.97245 26.6096 4.30258 26.1573C3.87222 25.865 3.81048 25.3435 4.16412 24.9896C4.51589 24.6358 5.15208 24.585 5.58431 24.8743C5.74335 24.9835 21.7153 35.597 42.3202 35.6924C58.1405 35.754 66.4446 33.8309 69.4814 32.914C66.5569 30.5603 59.4054 23.7158 58.9451 12.71C58.9283 12.2854 59.3006 11.9192 59.8115 11.8592C60.3204 11.81 60.805 12.0669 60.9323 12.4761C62.5508 17.7406 66.9723 23.6343 72.8495 24.1374C84.8658 25.1496 90.0058 10.2162 91.2932 5.61172C91.4073 5.20404 91.8676 4.92713 92.3859 4.97328C92.8949 5.01789 93.2803 5.37173 93.2841 5.79172C93.2897 6.33324 93.3121 17.1545 88.5033 24.5143C91.9743 22.4943 94.1354 20.6344 95.6042 17.9575C95.7577 17.6775 96.0889 17.4899 96.4631 17.4714C96.8486 17.4391 97.1928 17.6052 97.3874 17.8698L99.6309 20.9128C99.7918 21.1328 99.8218 21.4021 99.7095 21.642C96.77 27.8711 85.9829 39.1231 65.2115 41.1784C71.7567 42.7815 81.2115 46.0121 84.5964 51.772C85.2401 52.892 85.5619 53.9458 85.6592 54.9181C85.8837 54.9119 86.112 54.9227 86.3347 54.9688C87.6613 55.235 88.5351 56.2011 88.6755 57.558C88.8663 59.421 87.6613 61.804 85.0081 63.0747C85.0923 63.2824 85.1839 63.4947 85.285 63.7101C86.8287 67.0346 89.641 69.1577 92.3635 71.2114C95.4059 73.5083 98.2818 75.6775 98.6879 79.1635C99.1182 83.4173 97.3856 86.9372 93.8098 89.0863C91.3661 90.5555 88.1983 91.294 84.6488 91.294H84.6376ZM67.1294 61.8902C69.0024 64.8716 69.4777 68.2946 67.6533 71.7576C66.0872 74.7252 64.1412 78.4189 65.7691 81.7188C66.9928 84.1988 70.0297 86.231 75.0518 87.9341C81.96 90.274 88.5239 90.2063 92.6086 87.7479C95.6398 85.9249 97.0431 83.008 96.6708 79.3097C96.3377 76.4682 93.8604 74.5975 90.99 72.4314C88.2301 70.3499 85.1035 67.99 83.3895 64.3024C82.8712 63.1824 82.5457 62.1548 82.3754 61.221C78.9325 63.5132 75.7048 63.0394 71.7025 62.4563C70.316 62.2532 68.8153 62.0348 67.1294 61.8871V61.8902ZM84.254 59.5672C84.2446 60.0994 84.3026 60.7056 84.4561 61.384C86.039 60.4225 86.7763 58.8749 86.6546 57.698C86.6247 57.4041 86.4844 56.7103 85.8463 56.5811C85.7827 56.5734 85.6929 56.5826 85.5844 56.6318C85.3767 57.8149 84.849 58.8118 84.2521 59.5687L84.254 59.5672ZM49.9955 54.3058C48.1543 54.3058 46.5788 54.8088 45.8435 56.1472C45.2054 57.3134 45.3196 58.3503 46.1859 59.2302C47.6435 60.7117 50.9161 61.4379 53.792 60.9287C57.3734 60.2902 60.4402 60.0641 63.0972 60.061C60.9491 57.9949 58.1499 56.3611 55.5172 55.4042C53.7733 54.7688 51.7637 54.3058 49.9955 54.3058Z" fill="#D1CEC7"/>
<path d="M55.4291 146.66C55.1017 146.66 54.7817 146.531 54.5871 146.29C54.2784 145.908 54.4056 145.394 54.8697 145.139C66.2162 138.95 67.4755 127.71 68.6936 116.841C69.341 111.061 69.9528 105.605 72.0822 101.172C75.5307 93.9942 84.5963 89.9066 84.9798 89.7343C85.4701 89.5204 86.0819 89.6681 86.3458 90.0712C86.6096 90.4727 86.4281 90.9773 85.9379 91.1942C85.8499 91.2342 77.1305 95.1757 73.957 101.782C71.9343 105.994 71.3356 111.335 70.7031 116.994C69.5 127.726 68.1378 139.893 55.9849 146.522C55.8127 146.614 55.62 146.659 55.4291 146.659V146.66Z" fill="#D1CEC7"/>
<path d="M88.5201 83.433C86.546 83.433 84.6824 83.1253 83.1836 82.5438C81.2189 81.7823 80.0757 80.6315 79.9653 79.3039C79.8549 77.9778 80.796 76.7086 82.6148 75.7317C84.2576 74.8501 86.4674 74.2917 88.8438 74.1579C94.0287 73.8656 98.278 75.6609 98.4969 78.2547C98.714 80.8469 94.8145 83.1068 89.6203 83.4022C89.2517 83.4238 88.8849 83.433 88.5238 83.433H88.5201ZM89.9477 75.7855C89.6334 75.7855 89.3097 75.7932 88.9822 75.8132C86.9446 75.9286 85.0753 76.3932 83.7187 77.1224C82.5549 77.7455 81.9225 78.5008 81.9805 79.1916C82.0385 79.8823 82.7907 80.5577 84.0481 81.0454C85.5132 81.6161 87.4516 81.8746 89.4799 81.7484C93.7536 81.5053 96.6015 79.7746 96.4836 78.37C96.375 77.0762 93.7181 75.7886 89.9496 75.7886L89.9477 75.7855Z" fill="#D1CEC7"/>
</g>
</svg>
