<svg width="116" height="122" viewBox="0 0 116 122" fill="none" xmlns="http://www.w3.org/2000/svg">
<g filter="url(#filter0_bd_428_109)">
<path d="M53 90.1132C56.094 91.8996 59.906 91.8996 63 90.1132L80.7128 79.8868C83.8068 78.1004 85.7128 74.7992 85.7128 71.2265V50.7735C85.7128 47.2008 83.8068 43.8996 80.7128 42.1133L63 31.8867C59.906 30.1004 56.094 30.1004 53 31.8867L35.2872 42.1133C32.1932 43.8996 30.2872 47.2008 30.2872 50.7735V71.2265C30.2872 74.7992 32.1932 78.1004 35.2872 79.8868L53 90.1132Z" fill="url(#paint0_radial_428_109)"/>
<path d="M53.25 89.6802C56.1893 91.3772 59.8107 91.3772 62.75 89.6802L80.4628 79.4537C83.4021 77.7567 85.2128 74.6205 85.2128 71.2265V50.7735C85.2128 47.3795 83.4021 44.2433 80.4628 42.5463L62.75 32.3198C59.8107 30.6227 56.1893 30.6227 53.25 32.3198L35.5372 42.5463C32.5979 44.2433 30.7872 47.3795 30.7872 50.7735V71.2265C30.7872 74.6205 32.5979 77.7567 35.5372 79.4537L53.25 89.6802Z" stroke="url(#paint1_linear_428_109)" style="mix-blend-mode:overlay"/>
</g>
<path d="M49.7812 68.4063C47.3203 68.4063 46.1016 67.1875 46.1016 64.7734L46.1016 52.9141C46.1016 50.5 47.3203 49.2813 49.7812 49.2813L61.5469 49.2813C63.9844 49.2813 65.2148 50.5 65.2148 52.9141L65.2148 54.707L67.2305 54.707C69.668 54.707 70.8984 55.9258 70.8984 58.3398L70.8984 70.1992C70.8984 72.6133 69.668 73.832 67.2305 73.832L55.4648 73.832C53.0039 73.832 51.7852 72.6133 51.7852 70.1992L51.7852 68.4063L49.7812 68.4063ZM49.8047 66.5195L51.7852 66.5195L51.7852 58.3398C51.7852 55.9141 53.0039 54.707 55.4648 54.707L63.3281 54.707L63.3281 53.0195C63.3281 51.8008 62.6719 51.168 61.5117 51.168L49.8047 51.168C48.6328 51.168 47.9883 51.8008 47.9883 53.0195L47.9883 64.668C47.9883 65.8867 48.6328 66.5195 49.8047 66.5195ZM61.957 69.1328C62.168 69.1328 62.332 68.9688 62.3906 68.7461C63.0586 65.1953 63.3867 64.5273 67.0781 64.0352C67.3125 64.0117 67.4766 63.8242 67.4766 63.5898C67.4766 63.3672 67.3125 63.1914 67.0781 63.1563C63.3984 62.6523 62.9062 61.9492 62.3906 58.4688C62.3437 58.2344 62.168 58.0586 61.957 58.0586C61.7227 58.0586 61.5586 58.2227 61.4883 58.457C60.832 62.0195 60.5039 62.6523 56.8242 63.1563C56.5781 63.1914 56.4141 63.3672 56.4141 63.5898C56.4141 63.8242 56.5781 64 56.8242 64.0352C60.5156 64.4102 60.9844 65.1953 61.4883 68.7344C61.5352 68.9688 61.6992 69.1328 61.957 69.1328ZM57.1875 71.1016C57.3633 71.1016 57.4922 70.9961 57.5391 70.832C57.8555 69.0625 57.7383 68.9922 59.6602 68.6992C59.8242 68.6641 59.9531 68.5352 59.9531 68.3711C59.9531 68.1953 59.8242 68.0664 59.6602 68.043C57.75 67.7148 57.8555 67.6328 57.5391 65.9219C57.4922 65.7461 57.375 65.6172 57.1875 65.6172C57.0234 65.6172 56.9062 65.7344 56.8477 65.9219C56.5078 67.6328 56.6602 67.7148 54.7383 68.043C54.5625 68.0664 54.4453 68.1953 54.4453 68.3711C54.4453 68.5586 54.5625 68.6641 54.7617 68.6992C56.6602 68.9922 56.5078 69.0625 56.8477 70.7969C56.9062 70.9844 57.0117 71.1016 57.1875 71.1016Z" fill="url(#paint2_linear_428_109)" style="mix-blend-mode:overlay"/>
<defs>
<filter id="filter0_bd_428_109" x="0.287109" y="0.547005" width="115.426" height="120.906" filterUnits="userSpaceOnUse" color-interpolation-filters="sRGB">
<feFlood flood-opacity="0" result="BackgroundImageFix"/>
<feGaussianBlur in="BackgroundImageFix" stdDeviation="2"/>
<feComposite in2="SourceAlpha" operator="in" result="effect1_backgroundBlur_428_109"/>
<feColorMatrix in="SourceAlpha" type="matrix" values="0 0 0 0 0 0 0 0 0 0 0 0 0 0 0 0 0 0 127 0" result="hardAlpha"/>
<feOffset/>
<feGaussianBlur stdDeviation="15"/>
<feComposite in2="hardAlpha" operator="out"/>
<feColorMatrix type="matrix" values="0 0 0 0 0.866667 0 0 0 0 0.490196 0 0 0 0 0.235294 0 0 0 1 0"/>
<feBlend mode="normal" in2="effect1_backgroundBlur_428_109" result="effect2_dropShadow_428_109"/>
<feBlend mode="normal" in="SourceGraphic" in2="effect2_dropShadow_428_109" result="shape"/>
</filter>
<radialGradient id="paint0_radial_428_109" cx="0" cy="0" r="1" gradientUnits="userSpaceOnUse" gradientTransform="translate(75.0777 50.3333) rotate(92.637) scale(162.172 72.7296)">
<stop stop-color="#DD7D3C"/>
<stop offset="1" stop-color="#F9D978"/>
</radialGradient>
<linearGradient id="paint1_linear_428_109" x1="50.2" y1="48.6086" x2="78.7955" y2="89.1105" gradientUnits="userSpaceOnUse">
<stop stop-color="white"/>
<stop offset="1" stop-color="white" stop-opacity="0.5"/>
</linearGradient>
<linearGradient id="paint2_linear_428_109" x1="58.5" y1="47" x2="58.5" y2="76" gradientUnits="userSpaceOnUse">
<stop stop-color="white" stop-opacity="0.8"/>
<stop offset="1" stop-color="white" stop-opacity="0.3"/>
</linearGradient>
</defs>
</svg>
