<svg width="24" height="24" viewBox="0 0 24 24" fill="none" xmlns="http://www.w3.org/2000/svg">
<path d="M16.7802 2.52042C18.088 2.52417 19.3412 3.02476 20.2659 3.91285C21.1907 4.80095 21.712 6.00439 21.7159 7.26034V16.7392C21.712 17.9951 21.1907 19.1986 20.2659 20.0867C19.3412 20.9748 18.088 21.4753 16.7802 21.4791H6.90973C5.60189 21.4753 4.34873 20.9748 3.42394 20.0867C2.49916 19.1986 1.97789 17.9951 1.97398 16.7392V7.26034C1.97789 6.00439 2.49916 4.80095 3.42394 3.91285C4.34873 3.02476 5.60189 2.52417 6.90973 2.52042H16.7802ZM16.7802 0.624756H6.90973C3.1093 0.624756 0 3.61069 0 7.26034V16.7392C0 20.3888 3.1093 23.3748 6.90973 23.3748H16.7802C20.5806 23.3748 23.6899 20.3888 23.6899 16.7392V7.26034C23.6899 3.61069 20.5806 0.624756 16.7802 0.624756Z" fill="#D1CEC7"/>
<path d="M18.2612 7.2605C17.9683 7.2605 17.6821 7.17711 17.4386 7.02087C17.1951 6.86463 17.0053 6.64257 16.8932 6.38275C16.7812 6.12294 16.7519 5.83705 16.809 5.56123C16.8661 5.28541 17.0071 5.03206 17.2142 4.83321C17.4213 4.63435 17.6851 4.49893 17.9723 4.44407C18.2595 4.38921 18.5572 4.41736 18.8278 4.52498C19.0983 4.6326 19.3296 4.81485 19.4922 5.04867C19.6549 5.2825 19.7418 5.5574 19.7418 5.83862C19.7422 6.02546 19.7042 6.21054 19.6299 6.38323C19.5557 6.55592 19.4466 6.71282 19.309 6.84494C19.1715 6.97705 19.0081 7.08177 18.8283 7.15308C18.6484 7.2244 18.4557 7.2609 18.2612 7.2605ZM11.8453 8.20808C12.6263 8.20808 13.3897 8.43046 14.039 8.84712C14.6883 9.26377 15.1944 9.85597 15.4933 10.5488C15.7921 11.2417 15.8703 12.0041 15.7179 12.7397C15.5656 13.4752 15.1895 14.1508 14.6373 14.6811C14.0851 15.2114 13.3816 15.5726 12.6156 15.7189C11.8497 15.8652 11.0558 15.7901 10.3343 15.5031C9.61281 15.2161 8.99614 14.7301 8.56228 14.1065C8.12841 13.483 7.89683 12.7499 7.89683 11.9999C7.89795 10.9946 8.31431 10.0307 9.05456 9.31987C9.7948 8.60899 10.7985 8.20915 11.8453 8.20808ZM11.8453 6.31241C10.674 6.31241 9.52892 6.64598 8.55498 7.27093C7.58103 7.89588 6.82193 8.78415 6.37368 9.8234C5.92542 10.8627 5.80813 12.0062 6.03665 13.1095C6.26517 14.2128 6.82923 15.2262 7.65751 16.0216C8.48578 16.817 9.54106 17.3587 10.6899 17.5781C11.8388 17.7976 13.0296 17.685 14.1118 17.2545C15.1939 16.824 16.1189 16.095 16.7697 15.1597C17.4204 14.2244 17.7678 13.1248 17.7678 11.9999C17.7678 10.4915 17.1438 9.04486 16.0331 7.97824C14.9225 6.91163 13.4161 6.31241 11.8453 6.31241Z" fill="#D1CEC7"/>
</svg>
