<svg width="148" height="82" viewBox="0 0 148 82" fill="none" xmlns="http://www.w3.org/2000/svg">
<path d="M60.5014 20.1262H57.2543V5.25921H60.5014V20.1262ZM63.4089 10.7253L70.179 20.1049H65.9981L61.0107 12.4907L63.8758 9.70442C66.0405 7.5988 65.4463 6.10997 65.4887 5.23794H69.5423V5.28048C67.7596 6.57789 66.2103 7.98164 64.1305 10.0447L63.4089 10.7253Z" fill="#DD7D3C"/>
<path d="M84.5907 8.78986C86.8828 13.0224 85.3123 17.2762 81.2163 19.4881C77.3325 21.5725 73.0668 20.7643 70.7959 16.5318C68.5039 12.2992 70.0743 8.04545 74.1703 5.83347C78.0541 3.74912 82.3199 4.55734 84.5907 8.78986ZM81.2587 19.1053V19.1266C83.8479 17.7228 83.6781 14.5325 81.5983 10.6615C79.4972 6.74804 76.6958 4.87637 74.2128 6.21632C71.6024 7.62007 71.7722 10.8317 73.852 14.6814C75.953 18.5948 78.7544 20.4665 81.2587 19.1053Z" fill="#DD7D3C"/>
<path d="M96.2945 16.3191H96.337L95.6154 20.1262H87.6993V5.25921H90.9464V19.7646H91.2223C92.4532 19.7646 94.1723 17.9993 96.2945 16.3191Z" fill="#DD7D3C"/>
<path d="M110.48 16.6594L110.756 16.787C109.44 18.9777 107.254 20.3389 104.474 20.3389C100.293 20.3389 97.3641 17.2762 97.3641 12.831C97.3641 7.98164 100.59 4.98272 104.983 4.98272C107.381 4.98272 109.397 6.19505 110.543 7.38611L107.997 9.66188C107.19 7.91783 106.829 5.32302 104.919 5.32302C102.182 5.32302 100.887 8.38575 100.887 12.1078C100.887 16.8082 102.967 19.1266 105.874 19.1266C107.339 19.1266 109.206 18.5736 110.48 16.6594Z" fill="#DD7D3C"/>
<path d="M67.038 33.7123L67.0804 33.6911L66.6136 36.6474H57.2543V21.7805H66.4013L66.7409 24.5667H66.6984C65.0006 23.5245 63.0694 22.1633 61.3291 22.1633H60.5014V28.7354H61.032C63.2391 28.7354 64.7247 28.4802 65.2128 28.0123H65.2553V29.969H65.2128C64.7247 29.4798 63.2391 29.1182 61.032 29.1182H60.5014V36.3071H61.4352C63.1755 36.3071 65.1916 34.9672 67.038 33.7123Z" fill="#DD7D3C"/>
<path d="M78.2572 33.8612L78.5331 33.9888C77.3659 35.7754 75.8378 36.9027 73.7155 36.9027C70.7868 36.9027 68.4735 34.7545 68.4735 31.3302C68.4735 27.7145 71.0627 25.4174 74.2037 25.4174C76.1562 25.4174 77.5144 26.2044 78.3845 27.204L76.6867 28.7141C75.859 27.3316 75.7317 25.7365 74.4583 25.7365C72.7393 25.7365 71.6782 27.5443 71.6782 30.5858C71.6782 34.0314 73.0152 35.6903 75.0101 35.6903C76.1137 35.6903 77.3022 35.1586 78.2572 33.8612Z" fill="#DD7D3C"/>
<path d="M90.4216 28.6078L90.4429 28.6716C90.4429 28.6929 90.4429 28.7141 90.4429 28.7354V36.7538H87.9598L87.4292 35.1799C86.5591 36.1795 85.4343 36.9877 83.7789 36.9877C83.1847 36.9877 82.6541 36.9027 82.1872 36.7325C80.8926 36.2433 80.1711 35.0523 80.1711 33.0743V25.7365C80.256 25.7365 80.3408 25.7365 80.4257 25.7365C81.1685 25.8003 81.8264 26.1193 82.3146 26.6085C82.8239 27.119 83.1635 27.7996 83.2059 28.5652C83.2059 28.5865 83.2059 28.6291 83.2059 28.6503C83.2059 28.6716 83.2059 28.6929 83.2059 28.7141V29.5223V33.3295C83.2059 34.0952 83.2059 36.0094 85.0947 36.0094C85.8588 36.0094 86.644 35.5415 87.408 34.6907L87.4292 34.6694V25.6939C87.5141 25.6939 87.5778 25.6939 87.6415 25.6939C88.3843 25.7577 89.0422 26.0768 89.5303 26.566C90.0396 27.0764 90.3792 27.757 90.4216 28.5227C90.4216 28.544 90.4216 28.5865 90.4216 28.6078Z" fill="#DD7D3C"/>
<path d="M99.0817 25.4387H99.1029C101.735 25.4387 103.814 27.7145 103.814 30.9686C103.814 34.478 101.353 36.9239 98.3389 36.9239C96.5562 36.9239 95.304 36.4135 94.3915 35.584L92.7149 36.8814H92.63V21.0148C92.6724 21.0148 92.7149 21.0148 92.7573 21.0148C93.0757 21.036 93.394 21.1424 93.7123 21.2487L93.8397 21.2913L93.9882 21.3338C94.2641 21.4827 94.5188 21.6528 94.731 21.8655C95.2828 22.4185 95.6224 23.1629 95.6224 23.9924V27.119C96.5562 26.098 97.681 25.4387 99.0817 25.4387ZM97.9357 36.5624H97.9144C99.6547 36.5624 100.589 34.5631 100.589 31.1813C100.589 27.5869 99.6335 26.2895 98.1054 26.2895C97.2778 26.2895 96.4501 26.6936 95.6436 27.6294V34.478C95.9832 35.7329 96.8321 36.5624 97.9357 36.5624Z" fill="#DD7D3C"/>
<path d="M116.422 36.0944H116.379C116.549 36.0944 116.676 36.0732 116.804 36.0519V36.1795C116.528 36.3709 115.636 36.8601 114.512 36.8601C113.323 36.8601 112.814 36.3071 112.58 35.7967C111.753 36.3922 110.564 36.9452 108.972 36.9452C106.383 36.9452 104.707 35.584 104.707 33.5209C104.707 29.9903 110.31 29.3522 110.31 27.5869C110.31 27.2466 110.119 26.9701 109.758 26.8425C109.758 26.8425 109.736 26.8425 109.715 26.8425C109.652 26.8212 109.588 26.7999 109.503 26.7999C109.333 26.7787 109.1 26.7574 108.824 26.7999C108.484 26.8425 108.102 26.9701 107.72 27.2466L107.317 26.6936C108.208 25.8003 109.503 25.1835 111.222 25.4174C113.62 25.7365 115.403 27.7358 115.488 30.6283L115.445 34.5418C115.445 35.5202 115.445 36.0944 116.422 36.0944ZM110.585 35.7754H110.564C111.286 35.7754 111.88 35.5627 112.389 35.2862L112.411 30.1817C112.389 27.5231 112.283 25.8641 110.883 25.6727C110.331 25.5876 109.97 25.9492 109.63 26.5022C110.373 26.5872 110.946 26.9913 110.946 27.757C110.946 29.5436 107.933 30.5858 107.933 33.2019C107.933 34.7545 108.951 35.7754 110.585 35.7754Z" fill="#DD7D3C"/>
<path d="M124.265 35.4776L124.435 35.7541C123.459 36.456 122.483 36.9452 121.146 36.9452C118.493 36.9452 118.217 35.0948 118.217 34.0526V26.1619H116.88V25.7365L118.175 25.7152H118.217V22.7801C118.302 22.7801 118.366 22.7801 118.45 22.7801C119.193 22.8439 119.851 23.1629 120.339 23.6521C120.849 24.1626 121.167 24.8432 121.209 25.6089C121.209 25.6301 121.209 25.6727 121.209 25.6939V25.7365H124.117L124.138 27.6932H124.096C122.844 26.651 122.334 26.1193 121.4 26.1193H121.188V34.1164C121.188 34.6269 121.188 35.9881 122.61 35.9881C123.056 35.9881 123.608 35.8392 124.265 35.4776Z" fill="#DD7D3C"/>
<path d="M136.594 29.3522C137.634 32.6914 135.873 35.6691 132.668 36.6687C129.506 37.6684 126.535 36.3284 125.495 32.9679C124.455 29.6287 126.195 26.6723 129.421 25.6514C132.583 24.6518 135.554 25.9917 136.594 29.3522ZM132.668 36.3497C134.366 35.7967 134.536 33.4996 133.581 30.4156C132.604 27.2678 131.013 25.4387 129.357 25.9492C127.638 26.4809 127.49 28.7779 128.466 31.9045C129.442 35.0523 131.034 36.8601 132.668 36.3497Z" fill="#DD7D3C"/>
<path d="M141.032 21.8655V21.8443C141.562 22.376 141.902 23.0991 141.923 23.9073V36.6687H138.91V20.9935C139.737 20.9935 140.48 21.3338 141.032 21.8655Z" fill="#DD7D3C"/>
<path d="M65.4039 38.323H69.5211C68.3963 40.3648 67.6959 41.8536 66.4013 44.8738L62.6237 53.6153H62.5388L55.981 38.323H59.5039L64.1093 49.1701L66.0193 44.7249C67.4837 41.3219 65.5524 39.748 65.4039 38.323Z" fill="#DD7D3C"/>
<path d="M70.785 42.2152C72.4404 42.2152 73.7774 43.5551 73.7774 45.2141V53.1899H70.785V42.2152ZM72.2493 38.1741C73.0346 38.1741 73.65 38.7909 73.65 39.5778C73.65 40.3222 73.0346 40.939 72.2493 40.939C71.5066 40.939 70.8911 40.3222 70.8911 39.5778C70.8911 38.7909 71.5066 38.1741 72.2493 38.1741Z" fill="#DD7D3C"/>
<path d="M79.5238 49.1701L79.545 49.085C79.545 49.1063 79.545 49.1276 79.545 49.1488C79.4813 49.3403 79.4601 49.5955 79.545 49.9358C79.5662 50.0209 79.5874 50.1272 79.6299 50.2336C79.6511 50.2761 79.6723 50.3186 79.6936 50.3612C80.2666 51.5948 81.2216 52.1903 82.4101 52.1903C83.5136 52.1903 84.7021 51.6586 85.6571 50.3612L85.8906 50.5101C84.7233 52.2966 83.1953 53.4239 81.073 53.4239C78.1443 53.4239 75.8522 51.2757 75.8522 47.8514C75.8522 44.7887 77.7198 42.6831 80.2029 42.1088C80.6486 42.0025 81.1155 41.9599 81.5824 41.9599C81.6248 41.9599 81.6673 41.9599 81.7097 41.9599C82.3252 41.9387 83.0255 42.0238 83.7683 42.3215C83.9381 42.3853 84.1079 42.4704 84.2777 42.5555C86.2089 43.5764 86.9305 45.2566 86.124 46.8093C84.978 49.0212 81.6885 48.1917 80.2241 48.6171C80.0119 48.6809 79.8421 48.766 79.7148 48.8936C79.6936 48.9149 79.6723 48.9362 79.6511 48.9574C79.6087 49.0212 79.5662 49.085 79.5238 49.1701ZM79.2479 49.1276L79.1418 49.1701C79.1418 49.0638 79.163 48.213 80.1817 47.7451C80.2241 47.7238 80.2666 47.7026 80.309 47.6813C80.3515 47.66 80.3939 47.6388 80.4364 47.6175C81.4975 47.2134 82.8557 46.9369 83.5136 45.6607C83.6622 45.363 83.7471 45.0652 83.7895 44.7887C84.0442 42.598 82.4737 42.2364 81.9432 42.1726C81.9219 42.1726 81.9007 42.1726 81.9007 42.1726C81.8795 42.1726 81.8583 42.1726 81.8371 42.1726C81.7946 42.1726 81.7734 42.1726 81.7734 42.1726C81.4763 42.1726 81.2004 42.2364 80.9457 42.3428C79.736 42.8532 79.0144 44.5335 79.0144 47.0432C79.0144 47.6175 79.0569 48.1492 79.1205 48.6171C79.1418 48.7022 79.163 48.7873 79.1842 48.8724C79.2054 48.9574 79.2267 49.0425 79.2479 49.1276Z" fill="#DD7D3C"/>
<path d="M94.7526 52.0202L94.9224 52.2967C93.9461 52.9985 92.9699 53.4877 91.6328 53.4877C88.98 53.4877 88.7041 51.6373 88.7041 50.5951V42.7044H87.3671V42.279L88.6617 42.2577H88.7041V39.3226C88.789 39.3226 88.8527 39.3226 88.9375 39.3226C89.6803 39.3864 90.3382 39.7054 90.8264 40.1946C91.3357 40.7051 91.6541 41.3857 91.6965 42.1514C91.6965 42.1726 91.6965 42.2152 91.6965 42.2364V42.279H94.604L94.6252 44.2357H94.5828C93.3307 43.1935 92.8213 42.6618 91.8875 42.6618H91.6753V50.6589C91.6753 51.1694 91.6753 52.5306 93.0972 52.5306C93.5429 52.5306 94.0947 52.3817 94.7526 52.0202Z" fill="#DD7D3C"/>
<path d="M103.272 41.9387H103.25C105.521 41.9387 106.816 43.1723 106.816 45.8522V53.1899H103.823V45.5757C103.823 44.81 103.802 42.8958 101.913 42.8958C101.128 42.8958 100.385 43.2148 99.5577 44.0443V53.1687H96.5653V43.4488H97.1383C98.3905 44.9376 99.5789 43.6615 99.5789 43.6615C100.555 42.6831 101.595 41.9387 103.272 41.9387Z" fill="#DD7D3C"/>
<path d="M119.841 52.637H119.799C119.969 52.637 120.096 52.6157 120.223 52.5944V52.722C119.947 52.9134 119.056 53.4026 117.931 53.4026C116.743 53.4026 116.233 52.8496 116 52.3392C115.172 52.9347 113.984 53.4877 112.392 53.4877C109.803 53.4877 108.126 52.1265 108.126 50.0634C108.126 46.5328 113.729 45.8947 113.729 44.1294C113.729 43.7891 113.538 43.5126 113.177 43.385C113.177 43.385 113.156 43.385 113.135 43.385C113.071 43.3637 113.008 43.3424 112.923 43.3424C112.753 43.3212 112.519 43.2999 112.244 43.3424C111.904 43.385 111.522 43.5126 111.14 43.7891L110.737 43.2361C111.628 42.3428 112.923 41.726 114.642 41.9599C117.04 42.279 118.823 44.2783 118.908 47.1708L118.865 51.0843C118.865 52.0627 118.865 52.637 119.841 52.637ZM114.005 52.3179H113.984C114.705 52.3179 115.3 52.1052 115.809 51.8287L115.83 46.7242C115.809 44.0656 115.703 42.4066 114.302 42.2152C113.75 42.1301 113.39 42.4917 113.05 43.0447C113.793 43.1297 114.366 43.5338 114.366 44.2995C114.366 46.0861 111.352 47.1283 111.352 49.7444C111.352 51.297 112.371 52.3179 114.005 52.3179Z" fill="#DD7D3C"/>
<path d="M135.69 41.9387L135.669 42.0025C137.94 42.0025 139.234 43.2361 139.234 45.916V53.2538H136.242V45.6395C136.242 44.8738 136.22 42.9596 134.332 42.9596C133.546 42.9596 132.804 43.2786 131.976 44.1081V45.1503C131.997 45.3842 132.018 45.6395 132.018 45.8947V53.2325H128.984V44.7887C128.877 43.938 128.495 42.917 127.116 42.917C126.331 42.917 125.588 43.2361 124.76 44.0656V53.1899H121.768V43.47H122.341C123.593 44.9589 124.781 43.6827 124.781 43.6827C125.758 42.7044 126.798 41.9599 128.474 41.9599C130.087 41.9599 131.212 42.5767 131.721 43.8954C131.891 43.7678 131.997 43.6615 131.997 43.6615C132.973 42.6831 134.013 41.9387 135.69 41.9387Z" fill="#DD7D3C"/>
<mask id="mask0_294_181" style="mask-type:luminance" maskUnits="userSpaceOnUse" x="0" y="0" width="51" height="82">
<path d="M25.2312 0.788452H25.2303C11.296 0.788452 0 11.6874 0 25.1319V57.6566C0 71.1011 11.296 82 25.2303 82H25.2312C39.1655 82 50.4615 71.1011 50.4615 57.6566V25.1319C50.4615 11.6874 39.1655 0.788452 25.2312 0.788452Z" fill="white"/>
<path fill-rule="evenodd" clip-rule="evenodd" d="M25.2312 1.25805H25.2303C11.547 1.25805 0.474723 11.9577 0.474723 25.1319V57.6566C0.474723 70.8308 11.547 81.5304 25.2303 81.5304H25.2312C38.9146 81.5304 49.9868 70.8308 49.9868 57.6566V25.1319C49.9868 11.9577 38.9146 1.25805 25.2312 1.25805ZM25.2303 0.788452H25.2312C39.1655 0.788452 50.4615 11.6874 50.4615 25.1319V57.6566C50.4615 71.1011 39.1655 82 25.2312 82H25.2303C11.296 82 0 71.1011 0 57.6566V25.1319C0 11.6874 11.296 0.788452 25.2303 0.788452Z" fill="white"/>
</mask>
<g mask="url(#mask0_294_181)">
<path d="M27.3522 82.7886C27.2437 82.7886 27.1344 82.786 27.0224 82.7809H27.0118C25.2137 82.7817 21.7144 80.2843 20.8008 78.6469C20.0715 77.3419 20.7188 75.2715 22.5777 72.9673C22.6015 72.9373 22.6148 72.9149 22.598 72.8505C22.4631 72.3299 21.165 71.0008 13.9865 67.9605L13.4636 67.7431C11.3894 66.8892 8.25435 65.5996 7.18729 62.2174C5.94737 58.2878 7.80107 52.6847 12.8551 45.0851C12.9565 44.9322 13.1849 44.8265 13.3657 44.8523C13.7378 44.9064 13.8419 45.1409 14.2017 46.3368C15.3746 43.7157 16.6736 42.0318 16.7089 41.988C16.8173 41.8514 16.9946 41.7861 17.1719 41.8145C17.3473 41.8463 17.4902 41.9708 17.5414 42.1375C21.65 55.4923 32.0535 56.5017 32.1584 56.5112C32.4 56.5309 32.5879 56.7242 32.5941 56.9605C32.7704 63.878 28.8108 69.1177 28.6424 69.3376C28.4872 69.5395 28.1944 69.5833 27.9854 69.4364C19.4656 63.4905 15.7829 54.4124 14.1065 49.2595C12.8471 53.3522 12.5826 58.7285 16.7239 63.6478C17.0916 64.0859 17.5131 64.5593 17.9673 65.0704C20.665 68.1091 24.741 72.6993 25.7684 78.8952C25.8098 79.1477 25.6343 79.3857 25.375 79.4261C25.1158 79.4725 24.8715 79.2946 24.83 79.0438C24.5126 77.128 23.9005 75.384 23.1236 73.7946C21.4384 75.9776 21.2417 77.4974 21.6368 78.2036C22.3776 79.53 25.6167 81.8556 27.0374 81.8556H27.0435C30.8753 82.036 32.669 78.6228 32.6867 78.5885C32.8392 78.2929 32.1593 77.7379 31.7095 77.372C31.4794 77.1838 31.2615 77.0051 31.0993 76.8402C31.0111 76.7508 30.7774 76.512 30.818 76.1847C30.8621 75.8316 31.1487 75.6546 31.5834 75.3866C32.1302 75.0489 33.0447 74.4837 34.2881 73.2079C38.1102 68.8651 39.7072 65.2998 39.1543 62.323C38.4365 58.4613 34.0721 56.1203 30.2227 54.0559C28.7394 53.2595 27.339 52.5078 26.1837 51.7028C22.0266 48.8024 17.9938 41.8703 18.3377 32.9099C17.0025 33.5301 14.9972 33.4666 13.266 32.6624C11.5658 31.8721 7.73493 29.1873 8.899 21.3497C8.91752 21.2243 8.98807 21.1118 9.09301 21.0387C9.19884 20.9657 9.332 20.9374 9.45811 20.9606C9.55247 20.9786 18.2971 22.7002 19.2231 30.8789C24.8115 24.3566 25.6079 17.0568 25.4465 12.6109C24.9059 14.8059 23.8679 16.2046 22.3414 16.7836C17.1225 18.2595 13.3269 14.1006 11.5781 11.5989C12.4785 15.7097 16.5422 17.9932 16.5889 18.0181C16.7865 18.1264 16.8773 18.3558 16.8068 18.5654C16.7362 18.7759 16.5184 18.9116 16.2988 18.8807C9.26145 18.0585 3.57425 13.7741 3.33614 13.5929C3.12979 13.4357 3.09275 13.1444 3.25501 12.9434C3.41551 12.7415 3.71535 12.7063 3.92259 12.8635C3.97286 12.9013 8.56918 16.3592 14.4213 17.6281C12.6963 16.1951 10.3082 13.4975 10.4599 9.6367C10.4679 9.42536 10.6239 9.24495 10.8374 9.20199C11.0517 9.1599 11.2668 9.26299 11.3621 9.45371C11.4035 9.53618 15.5783 17.7381 22.0363 15.9073C23.9464 15.1822 24.9359 12.6341 24.9359 8.34804C24.9359 8.11437 25.1149 7.91763 25.353 7.88842C25.5893 7.85921 25.8133 8.00784 25.8724 8.23464C25.9059 8.36608 29.1556 21.4889 19.3025 32.2062C19.3042 32.4279 19.3007 32.653 19.291 32.8832C18.8897 42.7638 23.7824 48.8892 26.7375 50.9511C27.8461 51.7234 29.2235 52.4622 30.6813 53.2449C34.7167 55.4098 39.291 57.8634 40.09 62.1589C40.6976 65.4261 39.0309 69.2431 34.9945 73.8273C33.655 75.2053 32.677 75.8084 32.0932 76.1692C32.0253 76.2104 31.9538 76.2551 31.8903 76.2955C32.0305 76.4269 32.1725 76.5412 32.3189 76.6606C33.0394 77.2474 34.0253 78.0515 33.5368 79.0025C32.8498 80.3393 30.6945 82.7886 27.3522 82.7886ZM13.1946 46.2861C8.71204 53.195 6.9968 58.4613 8.0965 61.945C9.03305 64.9141 11.8074 66.0558 13.834 66.8892L14.3657 67.1099C17.6049 68.4819 19.6993 69.5249 21.0565 70.3359C19.7981 68.5498 18.4303 67.0077 17.2477 65.677C16.7874 65.1598 16.3614 64.6795 15.9884 64.2362C11.1398 58.4751 11.9714 52.159 13.6285 47.7328C13.55 47.4734 13.4777 47.2311 13.4115 47.0086C13.3357 46.7535 13.2616 46.5052 13.1946 46.2878V46.2861ZM14.6285 47.7595C16.0501 52.409 19.4453 62.1177 28.1468 68.4038C29.0075 67.128 31.6575 62.7603 31.6487 57.372C29.6133 57.0275 20.8916 54.8918 16.9267 43.3145C16.3491 44.1882 15.409 45.7586 14.6285 47.7595ZM9.77117 21.9829C8.92546 28.8214 12.1999 31.1392 13.6752 31.8248C15.4875 32.6676 17.4585 32.5052 18.3421 31.8257C18.0661 24.6453 11.6381 22.4657 9.77117 21.9829Z" fill="#D1CEC7"/>
<path d="M40.2085 51.2501C38.6985 51.2501 37.0393 50.9115 35.3529 50.2318C32.7514 49.1844 31.158 47.885 30.4842 46.2625C29.5708 44.0639 30.5719 41.8088 31.3756 39.9969C32.2109 38.1163 31.8047 36.3001 30.8167 34.7813C29.4752 34.7298 27.8906 34.8233 25.9453 35.2347C24.2432 35.5964 22.3506 35.0624 21.4433 33.9678C20.8125 33.205 20.7107 32.2544 21.1564 31.2885C21.9452 29.5785 24.2151 29.2314 26.9368 30.4082C28.696 31.1685 30.3061 32.3942 31.3897 33.8898C32.5285 33.9644 33.484 34.1307 34.3097 34.2747C36.3514 34.6278 37.4763 34.8233 38.9038 33.4741C38.9661 33.4159 39.0301 33.3456 39.0942 33.2676C39.1547 32.467 39.4162 31.867 39.7496 31.489C39.7742 30.943 39.6654 30.3156 39.3337 29.6308C37.0788 25.0726 27.902 23.5212 27.8098 23.5058C27.5668 23.4663 27.3957 23.2512 27.4168 23.0112C27.4369 22.7721 27.6422 22.5878 27.8879 22.5878H27.9213C39.0266 22.5878 44.7342 15.993 46.3056 12.3194L45.816 11.5308C44.7456 13.3488 43.0855 14.5702 40.4121 16.1636C40.2067 16.287 39.9426 16.2382 39.7944 16.0556C39.647 15.8713 39.6619 15.6082 39.8321 15.4428C41.694 13.624 42.5608 10.4192 42.9645 7.80321C41.5194 11.3586 38.9292 15.1934 34.5826 14.7536C32.5373 14.5462 30.858 13.0548 29.6813 11.1391C31.0255 15.9125 34.2255 18.4779 34.2649 18.5096C34.3886 18.6073 34.4536 18.7581 34.4395 18.9124C34.4246 19.0667 34.3316 19.2038 34.1921 19.2767C34.0412 19.3564 30.4228 21.1975 20.7765 21.1975C20.6388 21.1975 20.5001 21.1975 20.3589 21.1967C10.352 21.1418 2.85192 15.2114 2.5378 14.9594C2.336 14.7965 2.30704 14.5059 2.47288 14.3088C2.63783 14.1117 2.93615 14.0834 3.13883 14.2445C3.21341 14.3054 10.703 20.2187 20.365 20.2718C27.7835 20.3061 31.6775 19.2347 33.1015 18.7239C31.7301 17.4125 28.3766 13.5991 28.1608 7.46721C28.1529 7.23065 28.3275 7.02665 28.567 6.99322C28.8057 6.9658 29.0329 7.10894 29.0926 7.33693C29.8516 10.27 31.9249 13.5537 34.6808 13.8339C40.3155 14.3979 42.7258 6.07781 43.3295 3.51243C43.383 3.28529 43.5988 3.13101 43.8419 3.15673C44.0805 3.18158 44.2613 3.37872 44.263 3.61272C44.2657 3.91443 44.2762 9.94345 42.0212 14.0439C43.6488 12.9185 44.6622 11.8823 45.351 10.3909C45.423 10.2349 45.5783 10.1303 45.7537 10.12C45.9345 10.102 46.0959 10.1946 46.1872 10.342L47.2392 12.0374C47.3146 12.16 47.3287 12.31 47.276 12.4437C45.8976 15.9142 40.8394 22.1832 31.0992 23.3283C34.1684 24.2215 38.602 26.0214 40.1892 29.2305C40.491 29.8545 40.6419 30.4416 40.6876 30.9833C40.7929 30.9799 40.8999 30.9859 41.0043 31.0116C41.6264 31.1599 42.0362 31.6982 42.102 32.4542C42.1915 33.4921 41.6264 34.8198 40.3822 35.5278C40.4217 35.6435 40.4647 35.7618 40.5121 35.8818C41.236 37.7341 42.5547 38.9169 43.8313 40.0612C45.258 41.3408 46.6066 42.5494 46.797 44.4916C46.9988 46.8616 46.1863 48.8227 44.5096 50.0201C43.3637 50.8387 41.8782 51.2501 40.2138 51.2501H40.2085ZM31.9986 34.8678C32.8769 36.5289 33.0997 38.436 32.2443 40.3654C31.5099 42.0188 30.5974 44.0768 31.3607 45.9153C31.9345 47.297 33.3586 48.4293 35.7135 49.3781C38.9529 50.6818 42.0309 50.6441 43.9463 49.2744C45.3677 48.2587 46.0257 46.6336 45.8511 44.5731C45.695 42.99 44.5333 41.9477 43.1873 40.7409C41.8931 39.5812 40.427 38.2663 39.6233 36.2118C39.3802 35.5878 39.2276 35.0153 39.1477 34.495C37.5333 35.7721 36.0197 35.5081 34.143 35.1833C33.4928 35.0701 32.7891 34.9484 31.9986 34.8661V34.8678ZM40.0286 33.5736C40.0243 33.8701 40.0514 34.2078 40.1234 34.5858C40.8657 34.0501 41.2114 33.1879 41.1544 32.5322C41.1403 32.3684 41.0745 31.9819 40.7753 31.9099C40.7455 31.9056 40.7034 31.9107 40.6525 31.9382C40.5551 32.5973 40.3077 33.1527 40.0278 33.5744L40.0286 33.5736ZM23.9641 30.6422C23.1008 30.6422 22.362 30.9225 22.0172 31.6682C21.718 32.3179 21.7715 32.8956 22.1777 33.3859C22.8612 34.2113 24.3958 34.6158 25.7444 34.3321C27.4238 33.9764 28.8618 33.8504 30.1078 33.8487C29.1005 32.6976 27.7879 31.7873 26.5534 31.2542C25.7356 30.9002 24.7933 30.6422 23.9641 30.6422Z" fill="#D1CEC7"/>
<path d="M26.4915 82.7885C26.3384 82.7885 26.1888 82.7153 26.0979 82.5784C25.9536 82.3621 26.013 82.0708 26.23 81.926C31.5338 78.4174 32.1224 72.0456 32.6918 65.884C32.9945 62.6074 33.2805 59.514 34.2758 57.0014C35.8878 52.932 40.1254 50.6147 40.3047 50.5171C40.5339 50.3958 40.8199 50.4796 40.9432 50.7081C41.0666 50.9357 40.9817 51.2217 40.7526 51.3447C40.7115 51.3674 36.6356 53.6018 35.1522 57.3467C34.2067 59.7346 33.9268 62.7627 33.6312 65.9704C33.0688 72.0543 32.4321 78.952 26.7512 82.71C26.6708 82.7624 26.5807 82.7877 26.4915 82.7877V82.7885Z" fill="#D1CEC7"/>
<path d="M41.8503 47.3078C40.9273 47.3078 40.0559 47.1253 39.3551 46.7804C38.4364 46.3288 37.9019 45.6464 37.8503 44.859C37.7986 44.0725 38.2387 43.3198 39.0891 42.7404C39.8573 42.2176 40.8905 41.8864 42.0016 41.807C44.426 41.6337 46.4129 42.6984 46.5152 44.2367C46.6167 45.7741 44.7934 47.1144 42.3647 47.2896C42.1924 47.3023 42.0209 47.3078 41.852 47.3078H41.8503ZM42.5178 42.7723C42.3709 42.7723 42.2195 42.7769 42.0664 42.7888C41.1136 42.8572 40.2396 43.1327 39.6053 43.5652C39.0611 43.9347 38.7654 44.3827 38.7925 44.7924C38.8197 45.202 39.1714 45.6026 39.7593 45.8918C40.4443 46.2303 41.3507 46.3836 42.2991 46.3087C44.2974 46.1646 45.629 45.1382 45.5738 44.3052C45.5231 43.5378 44.2807 42.7742 42.5187 42.7742L42.5178 42.7723Z" fill="#D1CEC7"/>
</g>
<path d="M25.2308 82C11.3183 82 0 70.8897 0 57.2355V24.7645C0 11.1095 11.3183 0 25.2308 0C39.1433 0 50.4615 11.1095 50.4615 24.7645V57.2355C50.4615 70.8905 39.1433 82 25.2308 82ZM25.2308 0.922367C11.8369 0.922367 0.939703 11.6177 0.939703 24.7645V57.2355C0.939703 70.3823 11.8369 81.0776 25.2299 81.0776C38.6228 81.0776 49.5201 70.3823 49.5201 57.2355V24.7645C49.5201 11.6177 38.6228 0.922367 25.2299 0.922367H25.2308Z" fill="#D1CEC7"/>
<path d="M61.7269 59.5798H63.4587V67.5583H61.7269V63.5063H58.5009V67.5583H56.769V59.5798H58.5009V63.3008H61.7269V59.5798Z" fill="#D1CEC7"/>
<path d="M72.4655 61.4746C73.688 63.746 72.8504 66.0288 70.6658 67.2159C68.5943 68.3345 66.3192 67.9008 65.108 65.6293C63.8855 63.3579 64.7231 61.0751 66.9078 59.888C68.9792 58.7694 71.2544 59.2031 72.4655 61.4746ZM70.6884 67.0105V67.0219C72.0693 66.2685 71.9788 64.5564 70.8695 62.479C69.7489 60.3788 68.2548 59.3743 66.9304 60.0934C65.5381 60.8468 65.6287 62.5703 66.738 64.6363C67.8586 66.7365 69.3527 67.741 70.6884 67.0105Z" fill="#D1CEC7"/>
<path d="M78.4022 59.5798L80.4057 59.5912C80.202 60.4701 80.0662 61.543 80.0662 63.0725V64.682C80.0662 66.6224 79.1832 67.6953 77.1231 67.6953C75.0178 67.6953 74.0443 66.5767 74.0443 64.6591V59.5798H75.7761V64.6705C75.7761 66.4626 76.5232 67.3072 77.791 67.3072C79.0361 67.3072 79.8511 66.4968 79.8511 64.7276V63.0611C79.8511 61.5316 78.606 60.4587 78.4022 59.5798Z" fill="#D1CEC7"/>
<path d="M84.6528 62.8214L84.6188 62.81C85.5017 63.1981 86.7015 63.7802 86.7015 65.2527C86.7015 66.5425 85.7168 67.6839 83.883 67.6839C82.8304 67.6839 81.5739 67.3072 81.2457 67.136L81.6645 65.6407C82.1512 66.4169 83.0794 67.5013 84.0302 67.5013C85.0489 67.5013 85.6149 66.8621 85.6149 66.0973C85.6149 65.1157 84.6414 64.7048 83.883 64.3624L83.3397 64.1341C82.5813 63.7916 81.3475 63.1981 81.3475 61.7485C81.3475 60.4245 82.4115 59.4428 84.0642 59.4428C85.0603 59.4428 86.0111 59.8081 86.3507 59.9907L85.9998 61.4175C85.5243 60.8582 84.8905 59.614 83.9283 59.614C82.9662 59.614 82.4568 60.2304 82.4568 60.9267C82.4568 61.8284 83.3171 62.2393 84.1094 62.5932L84.6528 62.8214Z" fill="#D1CEC7"/>
<path d="M93.06 65.9718L93.0826 65.9603L92.8336 67.5469H87.8418V59.5684H92.7204L92.9015 61.0636H92.8789C91.9733 60.5043 90.9433 59.7738 90.0151 59.7738H89.5736V63.3008H89.8566C91.0338 63.3008 91.8262 63.1639 92.0865 62.9128H92.1092V63.9629H92.0865C91.8262 63.7003 91.0338 63.5063 89.8566 63.5063H89.5736V67.3643H90.0717C90.9999 67.3643 92.0752 66.6452 93.06 65.9718Z" fill="#D1CEC7"/>
<path d="M103.728 63.6318C104.283 65.4239 103.343 67.0219 101.634 67.5583C99.9476 68.0948 98.3629 67.3757 97.8082 65.5723C97.2536 63.7802 98.1818 62.1937 99.9023 61.6458C101.589 61.1093 103.174 61.8284 103.728 63.6318ZM101.634 67.3871C102.54 67.0904 102.63 65.8576 102.121 64.2026C101.6 62.5133 100.751 61.5316 99.8683 61.8056C98.9515 62.0909 98.8722 63.3237 99.3929 65.0016C99.9136 66.6909 100.763 67.6611 101.634 67.3871Z" fill="#D1CEC7"/>
<path d="M107.898 59.6255V59.614C107.174 59.614 106.687 60.0592 106.687 61.018L106.698 61.6572H108.158V61.8969H106.687V67.5469H105.079V61.8969H104.378V61.6572H105.079L105.068 61.2349C105.068 59.8766 105.928 59.1346 107.117 59.1346C107.762 59.1346 108.441 59.3401 109.064 59.7624L108.973 59.8994C108.554 59.7054 108.215 59.6255 107.898 59.6255Z" fill="#D1CEC7"/>
<path d="M115.767 59.5798V59.5684C118.382 59.5684 120.227 60.9038 120.227 63.4949C120.227 66.0631 118.438 67.5583 115.439 67.5583H112.813V59.5798H115.767ZM115.767 67.3757V67.3643C117.465 67.3643 118.359 65.9718 118.359 63.5177C118.359 61.2577 117.374 59.7396 115.699 59.7396H114.545V67.273C114.771 67.3415 115.077 67.3757 115.767 67.3757Z" fill="#D1CEC7"/>
<path d="M126.576 65.9718L126.598 65.9603L126.349 67.5469H121.357V59.5684H126.236L126.417 61.0636H126.395C125.489 60.5043 124.459 59.7738 123.531 59.7738H123.089V63.3008H123.372C124.549 63.3008 125.342 63.1639 125.602 62.9128H125.625V63.9629H125.602C125.342 63.7003 124.549 63.5063 123.372 63.5063H123.089V67.3643H123.587C124.516 67.3643 125.591 66.6452 126.576 65.9718Z" fill="#D1CEC7"/>
<path d="M132.876 65.9718L132.899 65.9603L132.65 67.5469H127.658V59.5684H132.537L132.718 61.0636H132.695C131.79 60.5043 130.76 59.7738 129.832 59.7738H129.39V63.3008H129.673C130.85 63.3008 131.643 63.1639 131.903 62.9128H131.926V63.9629H131.903C131.643 63.7003 130.85 63.5063 129.673 63.5063H129.39V67.3643H129.888C130.816 67.3643 131.892 66.6452 132.876 65.9718Z" fill="#D1CEC7"/>
<path d="M137.955 63.6433L139.879 67.5583H137.875L136.427 63.9286C136.246 63.9172 136.245 63.9172 136.03 63.9172H135.68V67.5583H133.948V59.5798H136.438C138.69 59.5798 139.822 60.2304 139.822 61.5659C139.822 62.616 139.019 63.3008 137.955 63.6433ZM136.517 63.6318H136.528C137.547 63.6318 138.181 62.7872 138.181 61.6458C138.181 60.4929 137.604 59.751 136.37 59.751H135.702V63.5634C135.917 63.609 136.325 63.6318 136.517 63.6318Z" fill="#D1CEC7"/>
<path d="M143.944 59.3401L147.442 67.5469H145.563L144.465 64.9673H141.737C141.273 66.2229 142.462 66.9077 142.53 67.5469H140.232C140.832 66.4512 141.194 65.6522 141.896 64.0313L143.899 59.3401H143.944ZM141.816 64.7733L144.397 64.7847L143.107 61.7485L142.099 64.1227C141.998 64.3509 141.896 64.5678 141.816 64.7733Z" fill="#D1CEC7"/>
</svg>
