<svg width="25" height="24" viewBox="0 0 25 24" fill="none" xmlns="http://www.w3.org/2000/svg">
<path d="M12.9697 0C6.32326 0 0.934082 5.37201 0.934082 11.9973C0.934082 16.9087 3.90001 21.1292 8.13935 22.9877C8.10711 22.1522 8.13398 21.1453 8.3489 20.2348C8.57994 19.26 9.89634 13.6952 9.89634 13.6952C9.89634 13.6952 9.50948 12.9293 9.50948 11.7992C9.50948 10.021 10.5411 8.6927 11.8306 8.6927C12.9267 8.6927 13.4533 9.51216 13.4533 10.4923C13.4533 11.5903 12.7494 13.2292 12.3894 14.7503C12.0885 16.025 13.0288 17.0587 14.2915 17.0587C16.5697 17.0587 18.1064 14.1397 18.1064 10.6798C18.1064 8.04999 16.3279 6.08436 13.0987 6.08436C9.45037 6.08436 7.1722 8.79982 7.1722 11.8313C7.1722 12.8757 7.48384 13.6148 7.96741 14.1825C8.18771 14.445 8.21994 14.5521 8.13935 14.852C8.08024 15.0716 7.95129 15.6019 7.89219 15.8161C7.81159 16.1214 7.56443 16.2285 7.29041 16.116C5.60864 15.4305 4.82417 13.5988 4.82417 11.5314C4.82417 8.12497 7.7095 4.03838 13.4264 4.03838C18.0204 4.03838 21.0454 7.35371 21.0454 10.9101C21.0454 15.6179 18.418 19.1314 14.5494 19.1314C13.2491 19.1314 12.0294 18.4298 11.6103 17.6371C11.6103 17.6371 10.9118 20.4008 10.7614 20.9364C10.5089 21.863 10.0092 22.7842 9.55246 23.5073C10.6603 23.833 11.8093 23.999 12.9644 24C19.6108 24 25 18.628 25 12.0027C25 5.37737 19.6162 0 12.9697 0Z" fill="#D1CEC7"/>
</svg>
