<svg width="26" height="22" viewBox="0 0 26 22" fill="none" xmlns="http://www.w3.org/2000/svg">
<path d="M25.6735 3.27418C24.7214 3.68675 23.714 3.95856 22.6832 4.08101C23.7665 3.4484 24.5812 2.44338 24.9745 1.25445C23.9502 1.85172 22.8316 2.27079 21.6663 2.49371C21.1757 1.98088 20.5856 1.57292 19.9319 1.29461C19.2782 1.0163 18.5746 0.873455 17.8638 0.874765C14.9861 0.874765 12.6573 3.16344 12.6573 5.98472C12.6553 6.37715 12.7004 6.76842 12.7916 7.15015C10.7281 7.05368 8.70751 6.52872 6.85909 5.60886C5.01068 4.689 3.37515 3.3945 2.05714 1.80816C1.59475 2.58553 1.35022 3.47248 1.34909 4.37633C1.34909 6.1482 2.27606 7.71441 3.67577 8.63199C2.84648 8.61236 2.03419 8.39347 1.30784 7.9939V8.05718C1.30784 10.5357 3.10574 12.5976 5.4853 13.0669C5.03783 13.1859 4.57671 13.2462 4.11361 13.2462C3.78501 13.2468 3.45715 13.215 3.13482 13.1513C3.79634 15.1816 5.72167 16.6582 8.00235 16.7003C6.14913 18.1247 3.87387 18.8945 1.53417 18.8888C1.11886 18.8882 0.703944 18.8636 0.291504 18.815C2.67169 20.3307 5.43847 21.1324 8.26252 21.1248C17.8527 21.1248 23.092 13.3359 23.092 6.58062C23.092 6.35914 23.0861 6.13765 23.0756 5.92144C24.0925 5.20007 24.9722 4.30361 25.6735 3.27418Z" fill="#D1CEC7"/>
</svg>
