<svg width="307" height="155" viewBox="0 0 307 155" fill="none" xmlns="http://www.w3.org/2000/svg">
<path d="M122.81 46H115.925V14.545H122.81V46ZM128.975 26.11L143.33 45.955H134.465L123.89 29.845L129.965 23.95C134.555 19.495 133.295 16.345 133.385 14.5H141.98V14.59C138.2 17.335 134.915 20.305 130.505 24.67L128.975 26.11ZM173.888 22.015C178.748 30.97 175.418 39.97 166.733 44.65C158.498 49.06 149.453 47.35 144.638 38.395C139.778 29.44 143.108 20.44 151.793 15.76C160.028 11.35 169.073 13.06 173.888 22.015ZM166.823 43.84V43.885C172.313 40.915 171.953 34.165 167.543 25.975C163.088 17.695 157.148 13.735 151.883 16.57C146.348 19.54 146.708 26.335 151.118 34.48C155.573 42.76 161.513 46.72 166.823 43.84ZM198.705 37.945H198.795L197.265 46H180.48V14.545H187.365V45.235H187.95C190.56 45.235 194.205 41.5 198.705 37.945ZM228.783 38.665L229.368 38.935C226.578 43.57 221.943 46.45 216.048 46.45C207.183 46.45 200.973 39.97 200.973 30.565C200.973 20.305 207.813 13.96 217.128 13.96C222.213 13.96 226.488 16.525 228.918 19.045L223.518 23.86C221.808 20.17 221.043 14.68 216.993 14.68C211.188 14.68 208.443 21.16 208.443 29.035C208.443 38.98 212.853 43.885 219.018 43.885C222.123 43.885 226.083 42.715 228.783 38.665ZM136.67 74.745L136.76 74.7L135.77 80.955H115.925V49.5H135.32L136.04 55.395H135.95C132.35 53.19 128.255 50.31 124.565 50.31H122.81V64.215H123.935C128.615 64.215 131.765 63.675 132.8 62.685H132.89V66.825H132.8C131.765 65.79 128.615 65.025 123.935 65.025H122.81V80.235H124.79C128.48 80.235 132.755 77.4 136.67 74.745ZM160.459 75.06L161.044 75.33C158.569 79.11 155.329 81.495 150.829 81.495C144.619 81.495 139.714 76.95 139.714 69.705C139.714 62.055 145.204 57.195 151.864 57.195C156.004 57.195 158.884 58.86 160.729 60.975L157.129 64.17C155.374 61.245 155.104 57.87 152.404 57.87C148.759 57.87 146.509 61.695 146.509 68.13C146.509 75.42 149.344 78.93 153.574 78.93C155.914 78.93 158.434 77.805 160.459 75.06ZM186.252 63.945L186.297 64.08C186.297 64.125 186.297 64.17 186.297 64.215V81.18H181.032L179.907 77.85C178.062 79.965 175.677 81.675 172.167 81.675C170.907 81.675 169.782 81.495 168.792 81.135C166.047 80.1 164.517 77.58 164.517 73.395V57.87C164.697 57.87 164.877 57.87 165.057 57.87C166.632 58.005 168.027 58.68 169.062 59.715C170.142 60.795 170.862 62.235 170.952 63.855C170.952 63.9 170.952 63.99 170.952 64.035C170.952 64.08 170.952 64.125 170.952 64.17V65.88V73.935C170.952 75.555 170.952 79.605 174.957 79.605C176.577 79.605 178.242 78.615 179.862 76.815L179.907 76.77V57.78C180.087 57.78 180.222 57.78 180.357 57.78C181.932 57.915 183.327 58.59 184.362 59.625C185.442 60.705 186.162 62.145 186.252 63.765C186.252 63.81 186.252 63.9 186.252 63.945ZM204.614 57.24H204.659C210.239 57.24 214.649 62.055 214.649 68.94C214.649 76.365 209.429 81.54 203.039 81.54C199.259 81.54 196.604 80.46 194.669 78.705L191.114 81.45H190.934V47.88C191.024 47.88 191.114 47.88 191.204 47.88C191.879 47.925 192.554 48.15 193.229 48.375L193.499 48.465L193.814 48.555C194.399 48.87 194.939 49.23 195.389 49.68C196.559 50.85 197.279 52.425 197.279 54.18V60.795C199.259 58.635 201.644 57.24 204.614 57.24ZM202.184 80.775H202.139C205.829 80.775 207.809 76.545 207.809 69.39C207.809 61.785 205.784 59.04 202.544 59.04C200.789 59.04 199.034 59.895 197.324 61.875V76.365C198.044 79.02 199.844 80.775 202.184 80.775ZM241.381 79.785H241.291C241.651 79.785 241.921 79.74 242.191 79.695V79.965C241.606 80.37 239.716 81.405 237.331 81.405C234.811 81.405 233.731 80.235 233.236 79.155C231.481 80.415 228.961 81.585 225.586 81.585C220.096 81.585 216.541 78.705 216.541 74.34C216.541 66.87 228.421 65.52 228.421 61.785C228.421 61.065 228.016 60.48 227.251 60.21C227.251 60.21 227.206 60.21 227.161 60.21C227.026 60.165 226.891 60.12 226.711 60.12C226.351 60.075 225.856 60.03 225.271 60.12C224.551 60.21 223.741 60.48 222.931 61.065L222.076 59.895C223.966 58.005 226.711 56.7 230.356 57.195C235.441 57.87 239.221 62.1 239.401 68.22L239.311 76.5C239.311 78.57 239.311 79.785 241.381 79.785ZM229.006 79.11H228.961C230.491 79.11 231.751 78.66 232.831 78.075L232.876 67.275C232.831 61.65 232.606 58.14 229.636 57.735C228.466 57.555 227.701 58.32 226.981 59.49C228.556 59.67 229.771 60.525 229.771 62.145C229.771 65.925 223.381 68.13 223.381 73.665C223.381 76.95 225.541 79.11 229.006 79.11ZM258.013 78.48L258.373 79.065C256.303 80.55 254.233 81.585 251.398 81.585C245.773 81.585 245.188 77.67 245.188 75.465V58.77H242.353V57.87L245.098 57.825H245.188V51.615C245.368 51.615 245.503 51.615 245.683 51.615C247.258 51.75 248.653 52.425 249.688 53.46C250.768 54.54 251.443 55.98 251.533 57.6C251.533 57.645 251.533 57.735 251.533 57.78V57.87H257.698L257.743 62.01H257.653C254.998 59.805 253.918 58.68 251.938 58.68H251.488V75.6C251.488 76.68 251.488 79.56 254.503 79.56C255.448 79.56 256.618 79.245 258.013 78.48ZM284.155 65.52C286.36 72.585 282.625 78.885 275.83 81C269.125 83.115 262.825 80.28 260.62 73.17C258.415 66.105 262.105 59.85 268.945 57.69C275.65 55.575 281.95 58.41 284.155 65.52ZM275.83 80.325C279.43 79.155 279.79 74.295 277.765 67.77C275.695 61.11 272.32 57.24 268.81 58.32C265.165 59.445 264.85 64.305 266.92 70.92C268.99 77.58 272.365 81.405 275.83 80.325ZM293.564 49.68V49.635C294.689 50.76 295.409 52.29 295.454 54V81H289.064V47.835C290.819 47.835 292.394 48.555 293.564 49.68ZM133.205 84.5H141.935C139.55 88.82 138.065 91.97 135.32 98.36L127.31 116.855H127.13L113.225 84.5H120.695L130.46 107.45L134.51 98.045C137.615 90.845 133.52 87.515 133.205 84.5ZM144.615 92.735C148.125 92.735 150.96 95.57 150.96 99.08V115.955H144.615V92.735ZM147.72 84.185C149.385 84.185 150.69 85.49 150.69 87.155C150.69 88.73 149.385 90.035 147.72 90.035C146.145 90.035 144.84 88.73 144.84 87.155C144.84 85.49 146.145 84.185 147.72 84.185ZM163.144 107.45L163.189 107.27C163.189 107.315 163.189 107.36 163.189 107.405C163.054 107.81 163.009 108.35 163.189 109.07C163.234 109.25 163.279 109.475 163.369 109.7C163.414 109.79 163.459 109.88 163.504 109.97C164.719 112.58 166.744 113.84 169.264 113.84C171.604 113.84 174.124 112.715 176.149 109.97L176.644 110.285C174.169 114.065 170.929 116.45 166.429 116.45C160.219 116.45 155.359 111.905 155.359 104.66C155.359 98.18 159.319 93.725 164.584 92.51C165.529 92.285 166.519 92.195 167.509 92.195C167.599 92.195 167.689 92.195 167.779 92.195C169.084 92.15 170.569 92.33 172.144 92.96C172.504 93.095 172.864 93.275 173.224 93.455C177.319 95.615 178.849 99.17 177.139 102.455C174.709 107.135 167.734 105.38 164.629 106.28C164.179 106.415 163.819 106.595 163.549 106.865C163.504 106.91 163.459 106.955 163.414 107C163.324 107.135 163.234 107.27 163.144 107.45ZM162.559 107.36L162.334 107.45C162.334 107.225 162.379 105.425 164.539 104.435C164.629 104.39 164.719 104.345 164.809 104.3C164.899 104.255 164.989 104.21 165.079 104.165C167.329 103.31 170.209 102.725 171.604 100.025C171.919 99.395 172.099 98.765 172.189 98.18C172.729 93.545 169.399 92.78 168.274 92.645C168.229 92.645 168.184 92.645 168.184 92.645C168.139 92.645 168.094 92.645 168.049 92.645C167.959 92.645 167.914 92.645 167.914 92.645C167.284 92.645 166.699 92.78 166.159 93.005C163.594 94.085 162.064 97.64 162.064 102.95C162.064 104.165 162.154 105.29 162.289 106.28C162.334 106.46 162.379 106.64 162.424 106.82C162.469 107 162.514 107.18 162.559 107.36ZM195.435 113.48L195.795 114.065C193.725 115.55 191.655 116.585 188.82 116.585C183.195 116.585 182.61 112.67 182.61 110.465V93.77H179.775V92.87L182.52 92.825H182.61V86.615C182.79 86.615 182.925 86.615 183.105 86.615C184.68 86.75 186.075 87.425 187.11 88.46C188.19 89.54 188.865 90.98 188.955 92.6C188.955 92.645 188.955 92.735 188.955 92.78V92.87H195.12L195.165 97.01H195.075C192.42 94.805 191.34 93.68 189.36 93.68H188.91V110.6C188.91 111.68 188.91 114.56 191.925 114.56C192.87 114.56 194.04 114.245 195.435 113.48ZM213.499 92.15H213.454C218.269 92.15 221.014 94.76 221.014 100.43V115.955H214.669V99.845C214.669 98.225 214.624 94.175 210.619 94.175C208.954 94.175 207.379 94.85 205.624 96.605V115.91H199.279V95.345H200.494C203.149 98.495 205.669 95.795 205.669 95.795C207.739 93.725 209.944 92.15 213.499 92.15ZM248.632 114.785H248.542C248.902 114.785 249.172 114.74 249.442 114.695V114.965C248.857 115.37 246.967 116.405 244.582 116.405C242.062 116.405 240.982 115.235 240.487 114.155C238.732 115.415 236.212 116.585 232.837 116.585C227.347 116.585 223.792 113.705 223.792 109.34C223.792 101.87 235.672 100.52 235.672 96.785C235.672 96.065 235.267 95.48 234.502 95.21C234.502 95.21 234.457 95.21 234.412 95.21C234.277 95.165 234.142 95.12 233.962 95.12C233.602 95.075 233.107 95.03 232.522 95.12C231.802 95.21 230.992 95.48 230.182 96.065L229.327 94.895C231.217 93.005 233.962 91.7 237.607 92.195C242.692 92.87 246.472 97.1 246.652 103.22L246.562 111.5C246.562 113.57 246.562 114.785 248.632 114.785ZM236.257 114.11H236.212C237.742 114.11 239.002 113.66 240.082 113.075L240.127 102.275C240.082 96.65 239.857 93.14 236.887 92.735C235.717 92.555 234.952 93.32 234.232 94.49C235.807 94.67 237.022 95.525 237.022 97.145C237.022 100.925 230.632 103.13 230.632 108.665C230.632 111.95 232.792 114.11 236.257 114.11ZM282.237 92.15L282.192 92.285C287.007 92.285 289.752 94.895 289.752 100.565V116.09H283.407V99.98C283.407 98.36 283.362 94.31 279.357 94.31C277.692 94.31 276.117 94.985 274.362 96.74V98.945C274.407 99.44 274.452 99.98 274.452 100.52V116.045H268.017V98.18C267.792 96.38 266.982 94.22 264.057 94.22C262.392 94.22 260.817 94.895 259.062 96.65V115.955H252.717V95.39H253.932C256.587 98.54 259.107 95.84 259.107 95.84C261.177 93.77 263.382 92.195 266.937 92.195C270.357 92.195 272.742 93.5 273.822 96.29C274.182 96.02 274.407 95.795 274.407 95.795C276.477 93.725 278.682 92.15 282.237 92.15Z" fill="#DD7D3C"/>
<mask id="mask0_706_345" style="mask-type:luminance" maskUnits="userSpaceOnUse" x="0" y="2" width="102" height="132">
<path d="M50.9899 2.50977H50.9917C78.6436 2.50977 100.842 20.0596 100.842 41.4704V94.1929C100.842 115.604 78.6436 133.153 50.9917 133.153H50.9899C23.338 133.153 1.13965 115.604 1.13965 94.1929V41.4704C1.13965 20.0596 23.338 2.50977 50.9899 2.50977Z" fill="white" stroke="white"/>
</mask>
<g mask="url(#mask0_706_345)">
<path d="M54.9359 134.401C54.7179 134.401 54.4981 134.397 54.273 134.389H54.2517C50.6373 134.39 43.6034 130.352 41.7669 127.704C40.301 125.593 41.6021 122.245 45.3388 118.519C45.3867 118.471 45.4133 118.434 45.3796 118.33C45.1084 117.488 42.499 115.339 28.0697 110.423L27.0185 110.071C22.8492 108.69 16.5475 106.605 14.4026 101.135C11.9102 94.7809 15.6363 85.7201 25.7954 73.4307C25.9992 73.1834 26.4584 73.0126 26.8217 73.0542C27.5698 73.1418 27.779 73.521 28.5022 75.4549C30.8598 71.2162 33.4709 68.4933 33.5419 68.4224C33.7599 68.2015 34.1162 68.096 34.4725 68.1418C34.8253 68.1932 35.1124 68.3946 35.2152 68.6642C43.474 90.2602 64.3859 91.8926 64.5969 91.9079C65.0826 91.9398 65.4601 92.2524 65.4726 92.6345C65.8271 103.821 57.8679 112.294 57.5293 112.65C57.2173 112.976 56.6288 113.047 56.2087 112.809C39.0832 103.194 31.6806 88.5139 28.3108 80.1811C25.7794 86.7996 25.2476 95.4936 33.572 103.449C34.3112 104.157 35.1585 104.923 36.0714 105.749C41.494 110.663 49.6871 118.086 51.7523 128.105C51.8356 128.514 51.4828 128.898 50.9617 128.964C50.4405 129.039 49.9495 128.751 49.8662 128.345C49.228 125.247 47.9978 122.427 46.4361 119.857C43.0486 123.387 42.6533 125.845 43.4474 126.987C44.9364 129.132 51.4474 132.893 54.3031 132.893H54.3155C62.0177 133.184 65.6232 127.665 65.6587 127.609C65.9653 127.131 64.5986 126.234 63.6946 125.642C63.2319 125.338 62.7941 125.049 62.4679 124.782C62.2906 124.638 61.8209 124.251 61.9024 123.722C61.9911 123.151 62.5672 122.865 63.4411 122.431C64.5401 121.885 66.3784 120.971 68.8778 118.908C76.5605 111.885 79.7707 106.12 78.6593 101.306C77.2163 95.0615 68.4435 91.2758 60.7059 87.9374C57.7243 86.6495 54.9093 85.4339 52.5872 84.1322C44.2309 79.4421 36.1246 68.2321 36.8159 53.7421C34.1321 54.7451 30.1011 54.6423 26.6214 53.342C23.2038 52.0639 15.5034 47.7224 17.8433 35.0482C17.8805 34.8454 18.0223 34.6634 18.2333 34.5453C18.446 34.4272 18.7137 34.3813 18.9672 34.4188C19.1568 34.448 36.7344 37.2321 38.5957 50.4579C49.8289 39.9106 51.4296 28.106 51.1052 20.9166C50.0186 24.4662 47.9322 26.7279 44.8638 27.6643C34.3732 30.051 26.7438 23.3256 23.2286 19.2801C25.0385 25.9277 33.2068 29.6203 33.3008 29.6606C33.6978 29.8357 33.8804 30.2066 33.7386 30.5456C33.5968 30.886 33.159 31.1055 32.7176 31.0554C18.5719 29.7259 7.14005 22.7977 6.66143 22.5045C6.24663 22.2503 6.17218 21.7793 6.49835 21.4543C6.82097 21.1278 7.42367 21.0708 7.84024 21.3251C7.94129 21.3862 17.1803 26.978 28.9436 29.0299C25.4763 26.7126 20.676 22.3503 20.9809 16.107C20.9968 15.7652 21.3106 15.4735 21.7396 15.404C22.1703 15.3359 22.6028 15.5027 22.7943 15.8111C22.8776 15.9444 31.2693 29.2077 44.2504 26.2472C48.09 25.0747 50.0789 20.9541 50.0789 14.0231C50.0789 13.6452 50.4387 13.3271 50.9173 13.2798C51.3924 13.2326 51.8427 13.4729 51.9614 13.8397C52.0288 14.0523 58.561 35.2732 38.7552 52.6043C38.7588 52.9627 38.7517 53.3267 38.7322 53.699C37.9256 69.6769 47.7603 79.5824 53.7004 82.9166C55.9286 84.1656 58.6975 85.3603 61.6277 86.6259C69.7393 90.1269 78.934 94.0946 80.5401 101.041C81.7614 106.324 78.4111 112.497 70.2977 119.91C67.605 122.138 65.6392 123.114 64.4657 123.697C64.3292 123.764 64.1856 123.836 64.058 123.901C64.3398 124.114 64.6252 124.299 64.9195 124.492C66.3677 125.441 68.3496 126.741 67.3675 128.279C65.9866 130.44 61.6543 134.401 54.9359 134.401ZM26.4779 75.3729C17.4675 86.5454 14.0197 95.0615 16.2302 100.695C18.1127 105.496 23.6895 107.343 27.763 108.69L28.8319 109.047C35.3429 111.266 39.5529 112.952 42.281 114.264C39.7514 111.376 37.0021 108.882 34.6249 106.73C33.6996 105.894 32.8434 105.117 32.0936 104.4C22.3476 95.0838 24.0192 84.8699 27.35 77.7124C27.1922 77.2929 27.0469 76.9011 26.9139 76.5413C26.7615 76.1287 26.6126 75.7272 26.4779 75.3757V75.3729ZM29.3602 77.7555C32.2177 85.2742 39.0424 100.974 56.5331 111.139C58.2632 109.076 63.59 102.013 63.5723 93.2999C59.481 92.7428 41.9495 89.2891 33.9797 70.5674C32.8186 71.9803 30.929 74.5199 29.3602 77.7555ZM19.5964 36.0721C17.8965 47.1306 24.4783 50.8788 27.444 51.9875C31.0867 53.3503 35.0486 53.0878 36.8248 51.9888C36.27 40.3774 23.3491 36.8528 19.5964 36.0721Z" fill="black"/>
<path d="M80.8148 84.2514C77.7641 84.2514 74.412 83.7027 71.005 82.601C65.7491 80.9033 62.53 78.7972 61.1686 76.1673C59.3233 72.6039 61.3459 68.9487 62.9696 66.0118C64.6572 62.9638 63.8364 60.0199 61.8404 57.5582C59.1301 57.4748 55.9287 57.6262 51.9987 58.2931C48.5598 58.8793 44.7362 58.0138 42.9032 56.2397C41.6287 55.0033 41.4231 53.4626 42.3236 51.8969C43.9172 49.1253 48.503 48.5627 54.0018 50.4701C57.556 51.7024 60.8088 53.6891 62.998 56.1133C65.2989 56.2342 67.2293 56.5037 68.8973 56.7371C73.0223 57.3095 75.2948 57.6262 78.1789 55.4395C78.3048 55.3451 78.4342 55.2311 78.5636 55.1047C78.6859 53.8071 79.2142 52.8347 79.8878 52.222C79.9374 51.337 79.7176 50.3201 79.0475 49.2101C74.4918 41.822 55.9517 39.3074 55.7656 39.2824C55.2746 39.2185 54.9289 38.8698 54.9714 38.4808C55.0122 38.0932 55.427 37.7945 55.9233 37.7945H55.9907C78.4271 37.7945 89.9582 27.1055 93.133 21.1512L92.1438 19.873C89.9812 22.8197 86.6274 24.7994 81.2261 27.382C80.8113 27.582 80.2777 27.5029 79.9782 27.2069C79.6804 26.9083 79.7105 26.4818 80.0544 26.2136C83.8159 23.2656 85.5673 18.0712 86.3827 13.8311C83.4632 19.5938 78.2303 25.8094 69.4486 25.0967C65.3166 24.7605 61.9238 22.3431 59.5466 19.2381C62.2623 26.9749 68.7272 31.133 68.8069 31.1844C69.0569 31.3428 69.1881 31.5873 69.1597 31.8374C69.1296 32.0874 68.9417 32.3097 68.6598 32.4278C68.3549 32.557 61.0445 35.5411 41.556 35.5411C41.2777 35.5411 40.9977 35.5411 40.7123 35.5397C20.4952 35.4508 5.34263 25.8385 4.70802 25.4301C4.30031 25.1661 4.24181 24.6952 4.57684 24.3756C4.9101 24.0561 5.5128 24.0103 5.92228 24.2714C6.07296 24.3701 21.2043 33.9546 40.7247 34.0407C55.7124 34.0963 63.5794 32.3597 66.4564 31.5317C63.6858 29.4061 56.9107 23.2253 56.4746 13.2865C56.4587 12.9031 56.8114 12.5725 57.2954 12.5183C57.7775 12.4738 58.2366 12.7058 58.3572 13.0754C59.8905 17.8294 64.0793 23.1517 69.6472 23.606C81.0311 24.5201 85.9006 11.0345 87.1202 6.87648C87.2283 6.50833 87.6644 6.25826 88.1554 6.29994C88.6375 6.34023 89.0027 6.65976 89.0063 7.03903C89.0116 7.52805 89.0328 17.3001 84.4771 23.9463C87.7654 22.1222 89.8128 20.4426 91.2043 18.0253C91.3497 17.7725 91.6635 17.603 92.018 17.5863C92.3831 17.5571 92.7093 17.7072 92.8937 17.9461L95.0191 20.6941C95.1715 20.8928 95.1999 21.1359 95.0935 21.3526C92.3087 26.9777 82.0894 37.1388 62.4112 38.9948C68.6119 40.4424 77.5691 43.3599 80.7759 48.5613C81.3856 49.5727 81.6905 50.5243 81.7827 51.4023C81.9954 51.3968 82.2117 51.4065 82.4226 51.4482C83.6795 51.6885 84.5073 52.561 84.6402 53.7863C84.821 55.4687 83.6795 57.6207 81.1658 58.7682C81.2456 58.9557 81.3325 59.1475 81.4282 59.342C82.8906 62.3442 85.5549 64.2613 88.1341 66.116C91.0164 68.1902 93.741 70.149 94.1257 73.2971C94.5334 77.1384 92.8919 80.3171 89.5044 82.2579C87.1893 83.5846 84.1882 84.2514 80.8255 84.2514H80.8148ZM64.2282 57.6985C66.0026 60.3909 66.4529 63.482 64.7245 66.6092C63.2408 69.2891 61.3973 72.6247 62.9395 75.6047C64.0988 77.8442 66.9758 79.6794 71.7336 81.2173C78.2782 83.3304 84.4966 83.2692 88.3663 81.0492C91.238 79.4029 92.5675 76.7689 92.2147 73.4291C91.8992 70.8631 89.5522 69.1738 86.833 67.2177C84.2183 65.338 81.2562 63.2069 79.6325 59.8768C79.1415 58.8655 78.833 57.9374 78.6717 57.0941C75.41 59.1641 72.3522 58.7362 68.5605 58.2097C67.247 58.0263 65.8253 57.8291 64.2282 57.6957V57.6985ZM80.4515 55.6007C80.4426 56.0814 80.4976 56.6287 80.6429 57.2414C82.1426 56.3731 82.841 54.9755 82.7258 53.9127C82.6974 53.6474 82.5645 53.0208 81.96 52.9041C81.8997 52.8972 81.8146 52.9055 81.7118 52.95C81.515 54.0183 81.0152 54.9186 80.4497 55.6021L80.4515 55.6007ZM47.9961 50.8494C46.2518 50.8494 44.7592 51.3037 44.0626 52.5124C43.4581 53.5654 43.5662 54.5018 44.387 55.2964C45.7678 56.6343 48.8682 57.29 51.5928 56.8302C54.9856 56.2536 57.891 56.0494 60.4081 56.0466C58.3731 54.1809 55.7213 52.7055 53.2271 51.8413C51.575 51.2676 49.6712 50.8494 47.9961 50.8494Z" fill="black"/>
<path d="M53.144 134.25C52.8338 134.25 52.5307 134.133 52.3463 133.915C52.0538 133.57 52.1744 133.106 52.614 132.876C63.3633 127.287 64.5563 117.137 65.7103 107.322C66.3236 102.102 66.9033 97.1746 68.9206 93.1721C72.1875 86.6898 80.776 82.9986 81.1394 82.843C81.6039 82.6499 82.1835 82.7832 82.4335 83.1472C82.6834 83.5098 82.5114 83.9655 82.047 84.1614C81.9637 84.1975 73.7032 87.7568 70.6968 93.7223C68.7805 97.5261 68.2133 102.35 67.6141 107.459C66.4743 117.151 65.1838 128.138 53.6705 134.125C53.5074 134.208 53.3248 134.248 53.144 134.248V134.25Z" fill="black"/>
<path d="M84.4927 77.1528C82.6225 77.1528 80.857 76.8749 79.4371 76.3498C77.5758 75.6621 76.4927 74.6229 76.3881 73.424C76.2836 72.2264 77.1752 71.0803 78.8982 70.1981C80.4546 69.4021 82.5481 68.8978 84.7994 68.7769C89.7114 68.513 93.737 70.1342 93.9444 72.4765C94.1501 74.8174 90.4559 76.8582 85.535 77.125C85.1858 77.1444 84.8384 77.1528 84.4962 77.1528H84.4927ZM85.8452 70.2467C85.5474 70.2467 85.2407 70.2537 84.9305 70.2718C83.0001 70.3759 81.2292 70.7955 79.9441 71.454C78.8415 72.0167 78.2423 72.6988 78.2973 73.3226C78.3522 73.9464 79.0648 74.5562 80.2561 74.9966C81.644 75.5121 83.4805 75.7454 85.4021 75.6315C89.4508 75.412 92.1487 73.8491 92.0371 72.5807C91.9343 71.4123 89.4171 70.2495 85.847 70.2495L85.8452 70.2467Z" fill="black"/>
</g>
<path d="M51 133.654C22.8781 133.654 0 115.667 0 93.5632V40.9965C0 18.8909 22.8781 0.906006 51 0.906006C79.1219 0.906006 102 18.8909 102 40.9965V93.5632C102 115.669 79.1219 133.654 51 133.654ZM51 2.3992C23.9265 2.3992 1.89946 19.7136 1.89946 40.9965V93.5632C1.89946 114.846 23.9265 132.161 50.9982 132.161C78.07 132.161 100.097 114.846 100.097 93.5632V40.9965C100.097 19.7136 78.07 2.3992 50.9982 2.3992H51Z" fill="black"/>
<path d="M125.072 129.224H128.744V146H125.072V137.48H118.232V146H114.56V129.224H118.232V137.048H125.072V129.224ZM147.841 133.208C150.433 137.984 148.657 142.784 144.025 145.28C139.633 147.632 134.809 146.72 132.241 141.944C129.649 137.168 131.425 132.368 136.057 129.872C140.449 127.52 145.273 128.432 147.841 133.208ZM144.073 144.848V144.872C147.001 143.288 146.809 139.688 144.457 135.32C142.081 130.904 138.913 128.792 136.105 130.304C133.153 131.888 133.345 135.512 135.697 139.856C138.073 144.272 141.241 146.384 144.073 144.848ZM160.428 129.224L164.676 129.248C164.244 131.096 163.956 133.352 163.956 136.568V139.952C163.956 144.032 162.084 146.288 157.716 146.288C153.252 146.288 151.188 143.936 151.188 139.904V129.224H154.86V139.928C154.86 143.696 156.444 145.472 159.132 145.472C161.772 145.472 163.5 143.768 163.5 140.048V136.544C163.5 133.328 160.86 131.072 160.428 129.224ZM173.681 136.04L173.609 136.016C175.481 136.832 178.025 138.056 178.025 141.152C178.025 143.864 175.937 146.264 172.049 146.264C169.817 146.264 167.153 145.472 166.457 145.112L167.345 141.968C168.377 143.6 170.345 145.88 172.361 145.88C174.521 145.88 175.721 144.536 175.721 142.928C175.721 140.864 173.657 140 172.049 139.28L170.897 138.8C169.289 138.08 166.673 136.832 166.673 133.784C166.673 131 168.929 128.936 172.433 128.936C174.545 128.936 176.561 129.704 177.281 130.088L176.537 133.088C175.529 131.912 174.185 129.296 172.145 129.296C170.105 129.296 169.025 130.592 169.025 132.056C169.025 133.952 170.849 134.816 172.529 135.56L173.681 136.04ZM191.507 142.664L191.555 142.64L191.027 145.976H180.443V129.2H190.787L191.171 132.344H191.123C189.203 131.168 187.019 129.632 185.051 129.632H184.115V137.048H184.715C187.211 137.048 188.891 136.76 189.443 136.232H189.491V138.44H189.443C188.891 137.888 187.211 137.48 184.715 137.48H184.115V145.592H185.171C187.139 145.592 189.419 144.08 191.507 142.664ZM214.126 137.744C215.302 141.512 213.31 144.872 209.686 146C206.11 147.128 202.75 145.616 201.574 141.824C200.398 138.056 202.366 134.72 206.014 133.568C209.59 132.44 212.95 133.952 214.126 137.744ZM209.686 145.64C211.606 145.016 211.798 142.424 210.718 138.944C209.614 135.392 207.814 133.328 205.942 133.904C203.998 134.504 203.83 137.096 204.934 140.624C206.038 144.176 207.838 146.216 209.686 145.64ZM222.967 129.32V129.296C221.431 129.296 220.399 130.232 220.399 132.248L220.423 133.592H223.519V134.096H220.399V145.976H216.991V134.096H215.503V133.592H216.991L216.967 132.704C216.967 129.848 218.791 128.288 221.311 128.288C222.679 128.288 224.119 128.72 225.439 129.608L225.247 129.896C224.359 129.488 223.639 129.32 222.967 129.32ZM239.652 129.224V129.2C245.196 129.2 249.108 132.008 249.108 137.456C249.108 142.856 245.316 146 238.956 146H233.388V129.224H239.652ZM239.652 145.616V145.592C243.252 145.592 245.148 142.664 245.148 137.504C245.148 132.752 243.06 129.56 239.508 129.56H237.06V145.4C237.54 145.544 238.188 145.616 239.652 145.616ZM262.569 142.664L262.617 142.64L262.089 145.976H251.505V129.2H261.849L262.233 132.344H262.185C260.265 131.168 258.081 129.632 256.113 129.632H255.177V137.048H255.777C258.273 137.048 259.953 136.76 260.505 136.232H260.553V138.44H260.505C259.953 137.888 258.273 137.48 255.777 137.48H255.177V145.592H256.233C258.201 145.592 260.481 144.08 262.569 142.664ZM275.929 142.664L275.977 142.64L275.449 145.976H264.865V129.2H275.209L275.593 132.344H275.545C273.625 131.168 271.441 129.632 269.473 129.632H268.537V137.048H269.137C271.633 137.048 273.313 136.76 273.865 136.232H273.913V138.44H273.865C273.313 137.888 271.633 137.48 269.137 137.48H268.537V145.592H269.593C271.561 145.592 273.841 144.08 275.929 142.664ZM286.696 137.768L290.776 146H286.528L283.456 138.368C283.072 138.344 283.072 138.344 282.616 138.344H281.872V146H278.2V129.224H283.48C288.256 129.224 290.656 130.592 290.656 133.4C290.656 135.608 288.952 137.048 286.696 137.768ZM283.648 137.744H283.672C285.832 137.744 287.176 135.968 287.176 133.568C287.176 131.144 285.952 129.584 283.336 129.584H281.92V137.6C282.376 137.696 283.24 137.744 283.648 137.744ZM299.396 128.72L306.812 145.976H302.828L300.5 140.552H294.716C293.732 143.192 296.252 144.632 296.396 145.976H291.524C292.796 143.672 293.564 141.992 295.052 138.584L299.3 128.72H299.396ZM294.884 140.144L300.356 140.168L297.62 133.784L295.484 138.776C295.268 139.256 295.052 139.712 294.884 140.144Z" fill="black"/>
</svg>
