<svg width="102" height="132" viewBox="0 0 102 132" fill="none" xmlns="http://www.w3.org/2000/svg">
<mask id="mask0_706_347" style="mask-type:luminance" maskUnits="userSpaceOnUse" x="0" y="0" width="102" height="132">
<path d="M50.9899 0.509766H50.9917C78.6436 0.509766 100.842 18.0596 100.842 39.4704V92.1929C100.842 113.604 78.6436 131.153 50.9917 131.153H50.9899C23.338 131.153 1.13965 113.604 1.13965 92.1929V39.4704C1.13965 18.0596 23.338 0.509766 50.9899 0.509766Z" fill="white" stroke="white"/>
</mask>
<g mask="url(#mask0_706_347)">
<path d="M54.9359 132.401C54.7179 132.401 54.4981 132.397 54.273 132.389H54.2517C50.6373 132.39 43.6034 128.352 41.7669 125.704C40.301 123.593 41.6021 120.245 45.3388 116.519C45.3867 116.471 45.4133 116.434 45.3796 116.33C45.1084 115.488 42.499 113.339 28.0697 108.423L27.0185 108.071C22.8492 106.69 16.5475 104.605 14.4026 99.1354C11.9102 92.7809 15.6363 83.7201 25.7954 71.4307C25.9992 71.1834 26.4584 71.0126 26.8217 71.0542C27.5698 71.1418 27.779 71.521 28.5022 73.4549C30.8598 69.2162 33.4709 66.4933 33.5419 66.4224C33.7599 66.2015 34.1162 66.096 34.4725 66.1418C34.8253 66.1932 35.1124 66.3946 35.2152 66.6642C43.474 88.2602 64.3859 89.8926 64.5969 89.9079C65.0826 89.9399 65.4601 90.2524 65.4726 90.6345C65.8271 101.821 57.8679 110.294 57.5293 110.65C57.2173 110.976 56.6288 111.047 56.2087 110.809C39.0832 101.194 31.6806 86.5139 28.3108 78.1811C25.7794 84.7996 25.2476 93.4936 33.572 101.448C34.3112 102.157 35.1585 102.923 36.0714 103.749C41.494 108.663 49.6871 116.086 51.7523 126.105C51.8356 126.514 51.4828 126.898 50.9617 126.964C50.4405 127.039 49.9495 126.751 49.8662 126.345C49.228 123.247 47.9978 120.427 46.4361 117.857C43.0486 121.387 42.6533 123.845 43.4474 124.987C44.9364 127.132 51.4474 130.893 54.3031 130.893H54.3155C62.0177 131.184 65.6232 125.665 65.6587 125.609C65.9653 125.131 64.5986 124.234 63.6946 123.642C63.2319 123.338 62.7941 123.049 62.4679 122.782C62.2906 122.638 61.8209 122.251 61.9024 121.722C61.9911 121.151 62.5672 120.865 63.4411 120.431C64.5401 119.885 66.3784 118.971 68.8778 116.908C76.5605 109.885 79.7707 104.12 78.6593 99.3063C77.2163 93.0615 68.4435 89.2758 60.7059 85.9374C57.7243 84.6495 54.9093 83.4339 52.5872 82.1322C44.2309 77.4421 36.1246 66.2321 36.8159 51.7421C34.1321 52.7451 30.1011 52.6423 26.6214 51.342C23.2038 50.0639 15.5034 45.7224 17.8433 33.0482C17.8805 32.8454 18.0223 32.6634 18.2333 32.5453C18.446 32.4272 18.7137 32.3813 18.9672 32.4188C19.1568 32.448 36.7344 35.2321 38.5957 48.4579C49.8289 37.9106 51.4296 26.106 51.1052 18.9166C50.0186 22.4662 47.9322 24.7279 44.8638 25.6643C34.3732 28.051 26.7438 21.3256 23.2286 17.2801C25.0385 23.9277 33.2068 27.6203 33.3008 27.6606C33.6978 27.8357 33.8804 28.2066 33.7386 28.5456C33.5968 28.886 33.159 29.1055 32.7176 29.0554C18.5719 27.7259 7.14005 20.7977 6.66143 20.5045C6.24663 20.2503 6.17218 19.7793 6.49835 19.4543C6.82097 19.1278 7.42367 19.0708 7.84024 19.3251C7.94129 19.3862 17.1803 24.978 28.9436 27.0299C25.4763 24.7126 20.676 20.3503 20.9809 14.107C20.9968 13.7652 21.3106 13.4735 21.7396 13.404C22.1703 13.3359 22.6028 13.5027 22.7943 13.8111C22.8776 13.9444 31.2693 27.2077 44.2504 24.2472C48.09 23.0747 50.0789 18.9541 50.0789 12.0231C50.0789 11.6452 50.4387 11.3271 50.9173 11.2798C51.3924 11.2326 51.8427 11.4729 51.9614 11.8397C52.0288 12.0523 58.561 33.2732 38.7552 50.6043C38.7588 50.9627 38.7517 51.3267 38.7322 51.699C37.9256 67.6769 47.7603 77.5824 53.7004 80.9166C55.9286 82.1655 58.6975 83.3603 61.6277 84.6259C69.7393 88.1269 78.934 92.0946 80.5401 99.0409C81.7614 104.324 78.4111 110.497 70.2977 117.91C67.605 120.138 65.6392 121.114 64.4657 121.697C64.3292 121.764 64.1856 121.836 64.058 121.901C64.3398 122.114 64.6252 122.299 64.9195 122.492C66.3677 123.441 68.3496 124.741 67.3675 126.279C65.9866 128.44 61.6543 132.401 54.9359 132.401ZM26.4779 73.3729C17.4675 84.5454 14.0197 93.0615 16.2302 98.695C18.1127 103.496 23.6895 105.343 27.763 106.69L28.8319 107.047C35.3429 109.266 39.5529 110.952 42.281 112.264C39.7514 109.376 37.0021 106.882 34.6249 104.73C33.6996 103.894 32.8434 103.117 32.0936 102.4C22.3476 93.0838 24.0192 82.8699 27.35 75.7124C27.1922 75.2929 27.0469 74.9011 26.9139 74.5413C26.7615 74.1287 26.6126 73.7272 26.4779 73.3757V73.3729ZM29.3602 75.7555C32.2177 83.2742 39.0424 98.9742 56.5331 109.139C58.2632 107.076 63.59 100.013 63.5723 91.2999C59.481 90.7428 41.9495 87.2891 33.9797 68.5674C32.8186 69.9803 30.929 72.5199 29.3602 75.7555ZM19.5964 34.0721C17.8965 45.1306 24.4783 48.8788 27.444 49.9875C31.0867 51.3503 35.0486 51.0878 36.8248 49.9889C36.27 38.3774 23.3491 34.8528 19.5964 34.0721Z" fill="black"/>
<path d="M80.8149 82.2514C77.7641 82.2514 74.4121 81.7027 71.005 80.601C65.7491 78.9033 62.53 76.7972 61.1686 74.1673C59.3233 70.6039 61.3459 66.9487 62.9696 64.0118C64.6572 60.9638 63.8364 58.0199 61.8404 55.5582C59.1301 55.4748 55.9287 55.6262 51.9987 56.2931C48.5598 56.8793 44.7362 56.0138 42.9032 54.2397C41.6287 53.0033 41.4231 51.4626 42.3236 49.8969C43.9172 47.1253 48.503 46.5627 54.0018 48.4701C57.556 49.7024 60.8088 51.6891 62.998 54.1133C65.2989 54.2342 67.2293 54.5037 68.8973 54.7371C73.0223 55.3095 75.2948 55.6262 78.1789 53.4395C78.3048 53.3451 78.4342 53.2311 78.5636 53.1047C78.6859 51.8071 79.2142 50.8347 79.8878 50.222C79.9374 49.337 79.7176 48.3201 79.0475 47.2101C74.4918 39.822 55.9517 37.3074 55.7656 37.2824C55.2746 37.2185 54.9289 36.8698 54.9714 36.4808C55.0122 36.0932 55.427 35.7945 55.9233 35.7945H55.9907C78.4271 35.7945 89.9582 25.1055 93.133 19.1512L92.1438 17.873C89.9812 20.8197 86.6274 22.7994 81.2261 25.382C80.8113 25.582 80.2777 25.5029 79.9782 25.2069C79.6804 24.9083 79.7105 24.4818 80.0544 24.2136C83.8159 21.2656 85.5673 16.0712 86.3827 11.8311C83.4632 17.5938 78.2303 23.8094 69.4486 23.0967C65.3166 22.7605 61.9238 20.3431 59.5466 17.2381C62.2623 24.9749 68.7272 29.133 68.8069 29.1844C69.0569 29.3428 69.1881 29.5873 69.1597 29.8374C69.1296 30.0874 68.9417 30.3097 68.6598 30.4278C68.3549 30.557 61.0445 33.5411 41.556 33.5411C41.2777 33.5411 40.9977 33.5411 40.7123 33.5397C20.4952 33.4508 5.34263 23.8385 4.70802 23.4301C4.30031 23.1661 4.24181 22.6952 4.57684 22.3756C4.9101 22.0561 5.5128 22.0103 5.92228 22.2714C6.07296 22.3701 21.2043 31.9546 40.7247 32.0407C55.7124 32.0963 63.5794 30.3597 66.4564 29.5317C63.6858 27.4061 56.9107 21.2253 56.4746 11.2865C56.4587 10.9031 56.8114 10.5725 57.2954 10.5183C57.7775 10.4738 58.2366 10.7058 58.3572 11.0754C59.8905 15.8294 64.0793 21.1517 69.6472 21.606C81.0311 22.5201 85.9006 9.03455 87.1202 4.87648C87.2283 4.50833 87.6644 4.25826 88.1554 4.29994C88.6375 4.34023 89.0027 4.65976 89.0063 5.03903C89.0116 5.52805 89.0328 15.3001 84.4771 21.9463C87.7654 20.1222 89.8128 18.4426 91.2043 16.0253C91.3497 15.7725 91.6635 15.603 92.018 15.5863C92.3832 15.5571 92.7093 15.7072 92.8937 15.9461L95.0191 18.6941C95.1715 18.8928 95.1999 19.1359 95.0935 19.3526C92.3087 24.9777 82.0894 35.1388 62.4112 36.9948C68.6119 38.4424 77.5691 41.3599 80.7759 46.5613C81.3856 47.5727 81.6905 48.5243 81.7827 49.4023C81.9954 49.3968 82.2117 49.4065 82.4226 49.4482C83.6795 49.6885 84.5073 50.561 84.6402 51.7863C84.821 53.4687 83.6795 55.6207 81.1658 56.7682C81.2456 56.9558 81.3325 57.1475 81.4282 57.342C82.8906 60.3442 85.5549 62.2613 88.1341 64.116C91.0164 66.1902 93.741 68.149 94.1257 71.2971C94.5334 75.1384 92.8919 78.3171 89.5044 80.2579C87.1893 81.5846 84.1882 82.2514 80.8255 82.2514H80.8149ZM64.2282 55.6985C66.0026 58.3909 66.4529 61.482 64.7245 64.6092C63.2408 67.2891 61.3973 70.6247 62.9395 73.6047C64.0988 75.8442 66.9758 77.6794 71.7336 79.2173C78.2782 81.3304 84.4966 81.2692 88.3663 79.0492C91.238 77.4029 92.5675 74.7689 92.2147 71.4291C91.8992 68.8631 89.5522 67.1738 86.833 65.2177C84.2183 63.338 81.2562 61.2069 79.6325 57.8768C79.1415 56.8655 78.833 55.9374 78.6717 55.0941C75.4101 57.1641 72.3522 56.7362 68.5605 56.2097C67.247 56.0263 65.8253 55.8291 64.2282 55.6957V55.6985ZM80.4515 53.6007C80.4426 54.0814 80.4975 54.6287 80.6429 55.2414C82.1426 54.3731 82.841 52.9755 82.7258 51.9127C82.6974 51.6474 82.5645 51.0208 81.96 50.9041C81.8997 50.8972 81.8146 50.9055 81.7118 50.95C81.515 52.0183 81.0152 52.9186 80.4497 53.6021L80.4515 53.6007ZM47.9961 48.8494C46.2518 48.8494 44.7592 49.3037 44.0626 50.5124C43.4581 51.5654 43.5662 52.5018 44.387 53.2964C45.7678 54.6343 48.8682 55.29 51.5928 54.8302C54.9856 54.2536 57.891 54.0494 60.4081 54.0466C58.3731 52.1809 55.7213 50.7055 53.2271 49.8413C51.575 49.2676 49.6712 48.8494 47.9961 48.8494Z" fill="black"/>
<path d="M53.144 132.25C52.8338 132.25 52.5307 132.133 52.3463 131.915C52.0538 131.57 52.1744 131.106 52.614 130.876C63.3633 125.287 64.5563 115.137 65.7103 105.322C66.3236 100.102 66.9033 95.1746 68.9206 91.1721C72.1875 84.6898 80.776 80.9986 81.1394 80.843C81.6039 80.6499 82.1835 80.7832 82.4334 81.1472C82.6834 81.5098 82.5114 81.9655 82.047 82.1614C81.9637 82.1975 73.7032 85.7568 70.6968 91.7223C68.7805 95.5261 68.2133 100.35 67.6141 105.459C66.4743 115.151 65.1838 126.138 53.6705 132.125C53.5074 132.208 53.3248 132.248 53.144 132.248V132.25Z" fill="black"/>
<path d="M84.4927 75.1528C82.6225 75.1528 80.857 74.8749 79.4371 74.3498C77.5758 73.6621 76.4927 72.6229 76.3881 71.424C76.2836 70.2264 77.1752 69.0803 78.8982 68.1981C80.4546 67.4021 82.5481 66.8978 84.7994 66.7769C89.7114 66.513 93.737 68.1342 93.9444 70.4765C94.1501 72.8174 90.4559 74.8582 85.535 75.125C85.1858 75.1444 84.8384 75.1528 84.4962 75.1528H84.4927ZM85.8452 68.2467C85.5474 68.2467 85.2407 68.2537 84.9305 68.2718C83.0001 68.3759 81.2292 68.7955 79.9441 69.454C78.8415 70.0167 78.2423 70.6988 78.2973 71.3226C78.3522 71.9464 79.0648 72.5562 80.2561 72.9966C81.644 73.5121 83.4805 73.7454 85.4021 73.6315C89.4508 73.412 92.1487 71.8491 92.0371 70.5807C91.9343 69.4123 89.4171 68.2495 85.847 68.2495L85.8452 68.2467Z" fill="black"/>
</g>
</svg>
