<svg width="25" height="23" viewBox="0 0 25 23" fill="none" xmlns="http://www.w3.org/2000/svg">
<path d="M12.9692 0.718018C6.32277 0.718018 0.933594 5.67026 0.933594 11.7779C0.933594 16.3055 3.89952 20.1962 8.13886 21.9095C8.10662 21.1392 8.13349 20.211 8.34841 19.3716C8.57945 18.473 9.89585 13.343 9.89585 13.343C9.89585 13.343 9.50899 12.637 9.50899 11.5952C9.50899 9.95594 10.5406 8.73146 11.8301 8.73146C12.9263 8.73146 13.4528 9.48689 13.4528 10.3904C13.4528 11.4026 12.7489 12.9135 12.3889 14.3157C12.0881 15.4908 13.0283 16.4437 14.291 16.4437C16.5692 16.4437 18.1059 13.7528 18.1059 10.5632C18.1059 8.13897 16.3274 6.32694 13.0982 6.32694C9.44989 6.32694 7.17171 8.83021 7.17171 11.6248C7.17171 12.5876 7.48335 13.269 7.96692 13.7923C8.18722 14.0343 8.21946 14.133 8.13886 14.4095C8.07976 14.6119 7.9508 15.1007 7.8917 15.2982C7.8111 15.5797 7.56394 15.6784 7.28992 15.5747C5.60815 14.9427 4.82369 13.2541 4.82369 11.3483C4.82369 8.2081 7.70901 4.44084 13.4259 4.44084C18.0199 4.44084 21.0449 7.49711 21.0449 10.7756C21.0449 15.1156 18.4175 18.3545 14.5489 18.3545C13.2486 18.3545 12.029 17.7077 11.6099 16.977C11.6099 16.977 10.9114 19.5247 10.7609 20.0184C10.5084 20.8726 10.0087 21.7218 9.55197 22.3884C10.6598 22.6887 11.8088 22.8417 12.9639 22.8426C19.6103 22.8426 24.9995 17.8904 24.9995 11.7828C24.9995 5.6752 19.6157 0.718018 12.9692 0.718018Z" fill="black"/>
</svg>
